<svg xmlns="http://www.w3.org/2000/svg" width="1916.967" height="431.861" viewBox="0 0 1916.967 431.861">
  <g id="Group_76" data-name="Group 76" transform="translate(-1941.516 -166.534)">
    <g id="Group_73" data-name="Group 73">
      <g id="Group_74" data-name="Group 74">
        <rect id="Rectangle_4281" data-name="Rectangle 4281" width="1916.967" height="376.822" transform="translate(1941.516 166.534)" fill="#d3e2ff"/>
        <g id="Group_58" data-name="Group 58">
          <path id="Path_307" data-name="Path 307" d="M3219.238,452.484a11.771,11.771,0,1,0-11.771,11.771,11.772,11.772,0,0,0,11.771-11.771" fill="#3dacd5"/>
          <path id="Path_308" data-name="Path 308" d="M3212.926,452.484a5.459,5.459,0,1,0-5.46,5.459,5.46,5.46,0,0,0,5.46-5.459" fill="#c8e7ff"/>
          <path id="Path_309" data-name="Path 309" d="M3255.032,254.876a19.853,19.853,0,0,0-19.345-3.667,19.675,19.675,0,0,0-37.318-5.386,19.943,19.943,0,0,0-13.779-.24,19.655,19.655,0,0,0-16.455-8.812,19.452,19.452,0,0,0-19.556,18.105Z" fill="#fff"/>
          <path id="Path_310" data-name="Path 310" d="M3401.94,220.862a15.639,15.639,0,0,0-10.221-3.769,15.807,15.807,0,0,0-5.141.858,15.622,15.622,0,0,0-29.632-4.276,15.8,15.8,0,0,0-10.94-.191,15.606,15.606,0,0,0-13.067-7,15.443,15.443,0,0,0-15.528,14.375Z" fill="#fff"/>
          <path id="Path_311" data-name="Path 311" d="M3569.021,303.632A20.653,20.653,0,0,0,3554.5,297.5a19.846,19.846,0,0,0-7.3,1.4c-1.387-12.239-10.669-21.7-21.919-21.7-9,0-16.737,6.056-20.186,14.742a19.816,19.816,0,0,0-15.546-.311c-3.937-6.849-10.779-11.386-18.566-11.386-11.764,0-21.379,10.345-22.063,23.393Z" fill="#fff"/>
          <path id="Path_312" data-name="Path 312" d="M3254.186,330.885s3.934,6.844,14.424,5.391,24.446-4.377,24.446-4.377l17.3,24.972,6.654-3.849s-13.2-34.5-16.709-36.315c-2.429-1.257-22.06,1.5-22.06,1.5l-25.155,13.157" fill="#143d75"/>
          <path id="Path_313" data-name="Path 313" d="M3313.529,362.648l-2.779-6,6.177-3.578c2.352.02,9.638.146,11.078.921,1.728.932-14.476,8.661-14.476,8.661" fill="#143d75"/>
          <path id="Path_314" data-name="Path 314" d="M3299.228,409.423c-.622,2.006-15.838,51.48-17.367,54.819-1.555,3.4-75.965,36.9-75.965,36.9l-7.668-9.829c8.566-12.425,61.435-38.658,61.435-38.658s3.65-13.735-1.912-31.66a27.474,27.474,0,0,1-.348-14.156Z" fill="#143d75"/>
          <path id="Path_315" data-name="Path 315" d="M3322.6,528.166l-13.57-.7c-5.984-13.653-12.765-67.566-12.765-67.566s-7.786-9.579-24.54-19.3c-13.679-7.925-16.352-27.131-16.873-33.929l44.507,2.754c5.407,13.038,16.122,38.943,17.018,41.68,1.191,3.677,6.223,77.053,6.223,77.053" fill="#30598e"/>
          <path id="Path_316" data-name="Path 316" d="M3268.4,334.723c-8.9,12.449-3.188,20.7-7.014,41.983-1.771,9.845-9.192,18.121-8.228,29.877l46.909,2.895s.6-42.348-7.795-73.609a5.081,5.081,0,0,0-2.788-2.9l-12.374-4.52c-2.727-1.005-7.02,3.915-8.71,6.279" fill="#66afee"/>
          <path id="Path_317" data-name="Path 317" d="M3274.465,386.716a11.1,11.1,0,0,1-8.776-9.8,45.507,45.507,0,0,0-1.411-7.4s1.236,9.173-2.47,16.22c-2.48,4.734-1,15.081.246,21.393l-8.9-.55c-.964-11.756,6.465-20.031,8.234-29.874,1.809-10.067,1.483-17.217,1.579-23.282,1.035,5.316,2.717,10.887,2.717,10.887l5.691,5.651,2.072-1.889Z" fill="#3395d7"/>
          <path id="Path_318" data-name="Path 318" d="M3313.164,279.572l-6.754,3.9-1.362.787a1.751,1.751,0,0,1-2.389-.639l-10.368-17.963a1.74,1.74,0,0,1,.641-2.388l1.355-.787,6.761-3.907a1.76,1.76,0,0,1,2.389.64l10.367,17.972a1.742,1.742,0,0,1-.64,2.388" fill="#30598e"/>
          <path id="Path_319" data-name="Path 319" d="M3313.164,279.572l-6.754,3.9-12.123-20.99,6.761-3.907a1.76,1.76,0,0,1,2.389.64l10.367,17.972a1.742,1.742,0,0,1-.64,2.388" fill="#fff"/>
          <path id="Path_320" data-name="Path 320" d="M3267.954,304.935s14.565-3.263,17.185-6.657,13.652-22,13.652-22,4.588-5.114,3.095-5.153a9.1,9.1,0,0,0-6.068,3.319c-1.321,1.927-11.806,15.658-11.806,15.658l-16.423,3.632Z" fill="#ff9880"/>
          <path id="Path_321" data-name="Path 321" d="M3278.21,303.378s-17.764,4.028-18.535-5.486c-.642-7.93,17.66-8.257,17.66-8.257Z" fill="#059590"/>
          <path id="Path_322" data-name="Path 322" d="M3303.556,303.621v-.064c-.494,1.106-4.429,1.473-7.191,1.6-1.557.064-4.6,1.263-4.659,2.81l-.713,7.869-2.552-.915a4.739,4.739,0,0,0,.072-.531,3.448,3.448,0,1,0-6.88-.229,3.693,3.693,0,0,0,1.207,2.874,48.025,48.025,0,0,1-5.646,1.82v.009l-.008-.009c-8.547-12.343,1.372-35.128,23.863-27.67,11.978,3.972,7.146,10.02,2.507,12.436" fill="#30598e"/>
          <path id="Path_323" data-name="Path 323" d="M3301.049,291.185c-22.491-7.457-32.41,15.327-23.863,27.67l.008.01v-.01c-3.141-11.613-2.485-19.612,10.024-25.02,11.233-4.858,21.251,3.846,21.251,3.846l.094-.123c.025-2.188-1.893-4.509-7.514-6.373" fill="#143d75"/>
          <path id="Path_324" data-name="Path 324" d="M3303.558,303.559c-.493,1.1-4.427,1.471-7.193,1.594-1.56.069-4.6,1.264-4.655,2.818l-.72,7.86-2.549-.91a3.865,3.865,0,0,0,.069-.531,3.445,3.445,0,1,0-6.873-.231,3.705,3.705,0,0,0,1.2,2.876,47.623,47.623,0,0,1-5.647,1.822l-.285,9.34,12.313,4.722.18-5.609a12.051,12.051,0,0,0,3.584.72c9.3.459,10.887-7.152,11.177-15.814Z" fill="#ff9880"/>
          <path id="Path_325" data-name="Path 325" d="M3272.867,288.019a14.794,14.794,0,0,1-3.634-.6l-.182,4.97-9.507-1.135.045-4.256.01.019c2.233.723,6.588-3.331,6.588-3.331s-2.269-3.615-.74-6.35c1.207-2.178,3.082.137,3.082.137,4.639,1.839,9.572-.366,11.941-3.258l.358,2.462c.346,7.439-.458,11.135-7.961,11.337" fill="#ff9880"/>
          <path id="Path_326" data-name="Path 326" d="M3262.869,279.777a2.952,2.952,0,0,1,2.618-3.249,3.158,3.158,0,1,1-2.618,3.249" fill="#ff9880"/>
          <path id="Path_327" data-name="Path 327" d="M3268.526,277.482s-1.87-2.317-3.084-.142c-1.526,2.733.743,6.352.743,6.352s-4.35,4.049-6.584,3.326c0,0-6.434-13.217-1.327-17.775s4.126-5.775,9.565-6.148,5.763-.605,8.981.683c3.335,1.332,6.064,7.406,3.73,10.341s-7.33,5.22-12.024,3.363" fill="#30598e"/>
          <path id="Path_328" data-name="Path 328" d="M3276.82,263.777c-3.218-1.287-3.544-1.055-8.982-.682s-4.455,1.59-9.563,6.147c-4.187,3.737-.622,13.285.8,16.61-1.275-4.268,1.148-13.262,2.385-14.636,1.366-1.518,1.973-2.656,3.947-5.313s6.831-1.822,11.158-.3,3.946,8.2,3.946,8.2l.187.093c2.035-3.01-.627-8.811-3.88-10.112" fill="#143d75"/>
          <path id="Path_329" data-name="Path 329" d="M3199.65,489.593l-10.642,6.641s14.942,23.943,17.438,25.968,5.059-3.38.3-9.931a12.2,12.2,0,0,1-1.169-12.822Z" fill="#143d75"/>
          <path id="Path_330" data-name="Path 330" d="M3309.837,527.213l0,12.543s28.222.006,31.262-1.038-.189-6.082-8.266-5.514a12.2,12.2,0,0,1-11.5-5.8Z" fill="#143d75"/>
          <path id="Path_331" data-name="Path 331" d="M3256.824,333.057s2.124,7.6,12.65,8.779,24.771,1.782,24.771,1.782l10.614,28.467,7.4-2.091s-4.293-36.691-7.241-39.311c-2.046-1.818-21.75-3.985-21.75-3.985l-27.623,6.551" fill="#30598e"/>
          <path id="Path_332" data-name="Path 332" d="M3306.507,378.465l-1.213-6.5,6.869-1.945c2.275.6,9.3,2.516,10.507,3.621,1.446,1.33-16.163,4.827-16.163,4.827" fill="#30598e"/>
          <path id="Path_333" data-name="Path 333" d="M3302.647,347.678s5.462-7.165,6.161-5.284.967,6.472-1.728,9.383Z" fill="#ff9880"/>
          <path id="Path_334" data-name="Path 334" d="M3302.713,347.656l-20.051,21.532a95.969,95.969,0,0,0,1.306-10.685,45.745,45.745,0,0,1-18.288,5.809,63.851,63.851,0,0,0,6.037,20c.571,1.132,1.49,2.558,2.748,2.407,9.777-1.151,32.611-35.005,32.611-35.005Z" fill="#ff9880"/>
          <path id="Path_335" data-name="Path 335" d="M3259.814,290.666s-7.187,4.746-5.485,18.457c1.367,11.017.865,27.726.865,27.726s16.826-1.057,28.071-10.151c0,0-8.186-16.845-9.252-23.192s-2.739-14.755-14.2-12.84" fill="#05bebe"/>
          <path id="Path_336" data-name="Path 336" d="M3259.73,311.839s2.812,14.354,6.215,16.722,22.314,12.395,22.314,12.395,5.394,4.809,5.361,3.367-1.81-5.142-3.733-6.326-15.654-13.284-15.654-13.284l-3.7-13.762Z" fill="#ff9880"/>
          <path id="Path_337" data-name="Path 337" d="M3258.217,314.443s-6.142-19.154,4.249-20.918c8.661-1.471,10.786,18.629,10.786,18.629Z" fill="#059590"/>
          <path id="Path_338" data-name="Path 338" d="M3299.149,480.525h0c.33,2.184.682,4.463,1.053,6.788-.371-2.326-.723-4.6-1.052-6.788" fill="#a2afc3"/>
          <path id="Path_339" data-name="Path 339" d="M3286.39,450.612h0a70.924,70.924,0,0,1,9.871,9.3s.458,3.643,1.243,9.275h0c-.783-5.635-1.242-9.279-1.242-9.279a71.114,71.114,0,0,0-9.873-9.293" fill="#86a7c3"/>
          <path id="Path_340" data-name="Path 340" d="M3297.5,469.183h0c.45,3.23,1.007,7.116,1.645,11.341h0c-.638-4.224-1.195-8.111-1.644-11.341" fill="#809dc3"/>
          <path id="Path_341" data-name="Path 341" d="M3254.853,406.745a66.66,66.66,0,0,0,1,7.353,66.6,66.6,0,0,1-1-7.353Z" fill="#86a7c3"/>
          <path id="Path_342" data-name="Path 342" d="M3255.852,414.1h0c.034.18.071.365.108.548-.037-.184-.074-.366-.108-.548" fill="#809dc3"/>
          <path id="Path_343" data-name="Path 343" d="M3271.051,440.2q.33.205.669.4c.5.286.981.573,1.461.859q-.717-.429-1.458-.858-.342-.2-.672-.4m15.329,10.4.011.009-.011-.009" fill="#0d2b61"/>
          <path id="Path_344" data-name="Path 344" d="M3254.855,406.745a66.8,66.8,0,0,0,1,7.353c.036.18.071.364.108.548,1.688,8.379,5.676,19.691,15.091,25.558.222.138.445.272.673.4q.741.431,1.458.86a116.862,116.862,0,0,1,13.2,9.137l.01.008a71.2,71.2,0,0,1,9.874,9.294s.458,3.644,1.242,9.277c.448,3.23,1,7.116,1.643,11.341.33,2.188.682,4.462,1.052,6.788,1.019,6.4,2.178,13.164,3.4,19.4.863-1.048,1.961-2.254,3.237-3.58-2.418-18.656-5.675-41.768-7.278-44.44-2.732-4.553-8.8-11.84-25.2-22.162-16.291-10.257-12.361-29.156-12.311-29.393l-.279-.018Z" fill="#21427d"/>
          <path id="Path_345" data-name="Path 345" d="M3261.775,407.115l.279.017v0Z" fill="#4580c1"/>
          <path id="Path_346" data-name="Path 346" d="M3308.54,516.53c-1.038.659-1.865,1.183-2.444,1.548.74,2.966,1.486,5.554,2.226,7.6l1.515,1.538s-.5-4.27-1.3-10.682" fill="#21427d"/>
          <path id="Path_347" data-name="Path 347" d="M3288.91,357.009a20.9,20.9,0,0,1-3.642,2.937l-2.526,9.168,1.3-10.686a29.758,29.758,0,0,0,2.744-2.635c.22-.367-.113-8.276-.3-12.586.2.009.443.039.636.048,1.079,4.409,2.9,12.573,1.793,13.754" fill="#3395d7"/>
          <path id="Path_348" data-name="Path 348" d="M3473.338,377.245l-6.753,3.9-1.363.786a1.751,1.751,0,0,1-2.389-.639l-10.366-17.962a1.737,1.737,0,0,1,.64-2.388l1.354-.788,6.762-3.907a1.761,1.761,0,0,1,2.389.64l10.366,17.972a1.743,1.743,0,0,1-.64,2.388" fill="#30598e"/>
          <path id="Path_349" data-name="Path 349" d="M3473.338,377.245l-6.753,3.9-12.124-20.991,6.762-3.907a1.761,1.761,0,0,1,2.389.64l10.366,17.972a1.743,1.743,0,0,1-.64,2.388" fill="#fff"/>
          <path id="Path_350" data-name="Path 350" d="M3389.559,443.024s-18.7,28.494-25.026,35.365-59.384,40.289-59.384,40.289l-3.414-9.289c3.706-7.64,44.543-41.358,44.543-41.358s7.531-14.3,6.433-39.4a20.725,20.725,0,0,1,3.487-13.057c8.308,3.485,21.639,8.628,31.677,10.239Z" fill="#143d75"/>
          <path id="Path_351" data-name="Path 351" d="M3302.089,509.042l-5.38,2.076a4.438,4.438,0,0,0-2.544,5.738l7.238,18.767a1.65,1.65,0,0,0,3.187-.469l0-.081c.084-2.724.98-16.588.98-16.588Z" fill="#143d75"/>
          <path id="Path_352" data-name="Path 352" d="M3385.54,353.191c-.819.757,4.79-7.107,13.2.721,6.959,6.478,22.317,28.794,22.317,28.794L3453.7,369.8l4.011,6.787s-33.3,22.2-38.578,22.682-47.992-30.235-33.594-46.073" fill="#e94770"/>
          <path id="Path_353" data-name="Path 353" d="M3430.771,529.7l-10.055-.155c-5.765-6.231-22.364-57.4-22.364-57.4s-10.56-12.234-34.313-20.4c-20.314-6.973-14.659-31.33-12.591-38.23,8.006,3.551,30.031,12.8,41.982,12.792,5.444,7.8,18.062,26.106,21.237,32.638,4.082,8.4,16.1,70.75,16.1,70.75" fill="#30598e"/>
          <path id="Path_354" data-name="Path 354" d="M3351.631,413.6c1.042.461,2.309,1.013,3.748,1.624h0c-1.437-.61-2.706-1.162-3.748-1.623" fill="#86a7c3"/>
          <path id="Path_355" data-name="Path 355" d="M3351.448,413.523a54.558,54.558,0,0,0-2.315,14.987c0,9.036,2.965,19.144,14.907,23.243,23.753,8.161,34.313,20.4,34.313,20.4v0h0v0h0l0,0v.009c.353,1.087,16.639,51.17,22.348,57.371-.194-.585-17.479-53.729-20.5-60.071-3.036-6.376-18.772-15.535-35.47-21.606-16.64-6.052-9.411-32.453-9.358-32.633-1.44-.611-2.7-1.163-3.749-1.624l-.182-.081" fill="#21427d"/>
          <path id="Path_356" data-name="Path 356" d="M3377.955,345.215a12.427,12.427,0,0,0-1.534,1.133c-2.775,2.335-8.365,8.454-8.544,19.982-.24,15.357-12.957,41.753-19.436,45.832,0,0,30.714,14.4,45.351,14.157,0,0-1.074-40.185,6.959-44.152,9.719-4.8-.4-22.041-6.641-31.13Z" fill="#e94770"/>
          <path id="Path_357" data-name="Path 357" d="M3381.6,351.745c13.13,11.746-8.93,19.517-31.564,35.548-16.939,12-39.459,30.013-39.459,30.013l-6.554-5.395s62.271-73.858,77.577-60.166" fill="#e94770"/>
          <path id="Path_358" data-name="Path 358" d="M3404.51,327.209l-.018.074-.027-.074c-3.559,1.574-6.223.348-8.418,2.124s-6.634,3.22-6.634,3.22c-3.624-1.574-4.109,3.962-1.637,8.134s-1.612,7.568-1.612,7.568l.129.045c-1.355,1.813-9.022,11.539-14.366,7.312-5.893-4.657-7.4,5.609-14.247,3.56s-9.315,12.59-20.955,5.333-11.5-29.7.824-29.151,11.366.96,18.081-6.3,14.65.55,18.758-1.226,2.6-13.688,13.689-13.139,17.942,4.1,16.433,12.517" fill="#30598e"/>
          <path id="Path_359" data-name="Path 359" d="M3404.467,327.211s8.69,21.008-7.6,20.392l-2.8,3.353-7.9-2.7s4.068-3.388,1.6-7.562-1.985-9.717,1.642-8.143c0,0,4.448-1.438,6.638-3.217s4.858-.547,8.416-2.121" fill="#ff9880"/>
          <path id="Path_360" data-name="Path 360" d="M3453.949,370.324s7.821-3.976,9.045-.253-5.82,6.142-5.82,6.142Z" fill="#ff9880"/>
          <path id="Path_361" data-name="Path 361" d="M3245.079,529.335h0a2.13,2.13,0,0,0,2.877-.859l55.959-103.686a2.123,2.123,0,0,0-3.737-2.016L3244.22,526.459a2.127,2.127,0,0,0,.859,2.876" fill="#143d75"/>
          <path id="Path_362" data-name="Path 362" d="M3267.089,430.245l17.6,9.5a5.567,5.567,0,0,1,2.255,7.542l-40.926,75.83a5.566,5.566,0,0,1-7.541,2.255l-17.6-9.5a5.565,5.565,0,0,1-2.255-7.541l40.925-75.831a5.567,5.567,0,0,1,7.542-2.254" fill="#ffb100"/>
          <path id="Path_363" data-name="Path 363" d="M3285.634,440.385l-.1.2-40.926,75.83a5.566,5.566,0,0,1-7.541,2.255l-17.6-9.5a5.6,5.6,0,0,1-.942-.638,5.561,5.561,0,0,0,2.352,7.339l17.6,9.5a5.566,5.566,0,0,0,7.541-2.255l40.926-75.83a5.567,5.567,0,0,0-1.314-6.9" fill="#f80"/>
          <path id="Path_364" data-name="Path 364" d="M3234.043,520.967a12.737,12.737,0,1,0,17.258-5.16,12.736,12.736,0,0,0-17.258,5.16" fill="#143d75"/>
          <path id="Path_365" data-name="Path 365" d="M3240.883,524.658a4.965,4.965,0,1,0,6.726-2.01,4.966,4.966,0,0,0-6.726,2.01" fill="#fff"/>
          <path id="Path_366" data-name="Path 366" d="M3310.573,417.306s-7.313,8.347-10.5,4.552,3.946-9.947,3.946-9.947Z" fill="#ff9880"/>
          <path id="Path_367" data-name="Path 367" d="M3383.1,353.242c7.178,8.075-2.468,14.429-16.72,23.374-3.586,14.749-12.754,32.283-17.935,35.546,0,0,2.732,1.279,6.94,3.064,4.4-6.427,9.651-18.847,11.446-25.287,2.249-8.067,5.946-15.208,15.336-21.425s1.012-15.336,1.012-15.336Z" fill="#c12954"/>
          <path id="Path_368" data-name="Path 368" d="M3404.249,383.323c-1.266.8-1.49,3.563-1.4,6.114-1.586-1.283-3.2-2.663-4.766-4.105a6.573,6.573,0,0,1,2.669-3.165c9.621-4.75-.228-21.71-6.453-30.861l.016.008c1.545,2.12,12.6,16.522,12.847,21.17.263,5.021-.4,9.253-2.911,10.839" fill="#c12954"/>
          <path id="Path_369" data-name="Path 369" d="M3420.712,529.552v5.766a4.437,4.437,0,0,0,4.438,4.438h20.115a1.65,1.65,0,0,0,.709-3.142l-.073-.031c-2.513-1.059-15.126-6.883-15.126-6.883Z" fill="#143d75"/>
          <path id="Path_370" data-name="Path 370" d="M3404.326,322.383c-1.52-4.989-7.574-7.269-16.25-7.691-11.089-.549-9.58,11.355-13.688,13.139s-12.05-6.03-18.758,1.227-5.756,6.845-18.08,6.295c-7.983-.355-10.846,8.932-8.716,17.493,2.638-7.694,12.162-11.106,20.015-10.233,10.929,1.214,6.88-2.631,8.7-8.7s3.645-5.667,12.752-.608,9.111-7.329,15.585-13.966c6.985-7.159,16.073.742,18.438,3.047" fill="#143d75"/>
          <path id="Path_371" data-name="Path 371" d="M3480.712,494.409c-.386,2.973-.658,5.721-.818,8.077h1.128a60.866,60.866,0,0,1,1.074-7.227c2.154-10.572,6.006-20.447,5.709-32.327s-8.528-43.01-8.38-44.972-6.659,33.674-2.311,48.811,4.564,20.188,3.6,27.638" fill="#66afee"/>
          <path id="Path_372" data-name="Path 372" d="M3482.372,487.145a102.792,102.792,0,0,0-2.049,15.341h.7a60.836,60.836,0,0,1,1.078-7.227c2.154-10.573,6.005-20.446,5.709-32.327s-8.529-43.01-8.381-44.973c0,0-.67,24.759,3.324,42.5a56.01,56.01,0,0,1-.377,26.69" fill="#30598e"/>
          <path id="Path_373" data-name="Path 373" d="M3477.553,502.486h1.37c.718-6.068,1.271-17.444-2.661-27.594-5.69-14.691-14.855-33.5-14.942-41.058,0,0-2.9,35.974,4.63,45.911,6.769,8.932,11.778,11.024,11.6,22.741" fill="#30598e"/>
          <path id="Path_374" data-name="Path 374" d="M3477.549,502.486h.788a46.654,46.654,0,0,0-7.9-30.09c-8.384-12.059-9.118-38.562-9.118-38.562s-2.9,35.974,4.63,45.911c6.767,8.931,11.772,11.027,11.6,22.741" fill="#66afee"/>
          <path id="Path_375" data-name="Path 375" d="M3495.1,458.7c-8.6,8.23-4.9,32.656-8.676,37.592a42.545,42.545,0,0,1-5.848,6.195h3.594a39.642,39.642,0,0,0,5.71-4.074c5.78-4.987,6.247-14.908,9.931-26.361,1.827-5.684,17.856-17.894,21.254-17.708-2.414-.48-18.041-3.227-25.965,4.356" fill="#66afee"/>
          <path id="Path_376" data-name="Path 376" d="M3514.7,453.556c-11.063,2.2-20.832,14.145-22.543,32.694a20.678,20.678,0,0,1-10.307,16.235h2.306a39.476,39.476,0,0,0,5.721-4.074c5.78-4.987,6.247-14.908,9.93-26.361,1.828-5.684,17.857-17.894,21.255-17.708a49.33,49.33,0,0,0-6.362-.786" fill="#30598e"/>
          <path id="Path_377" data-name="Path 377" d="M3521.066,454.342l.327.068a.953.953,0,0,0-.327-.068" fill="#4aa7c8"/>
          <path id="Path_378" data-name="Path 378" d="M3463.767,493.2c1.13,4.8,4.875,7.676,8.018,9.29h4.2c-8.664-28.1-27.369-27.338-27.369-27.338,2.058.311,13.092,9.309,15.149,18.048" fill="#66afee"/>
          <path id="Path_379" data-name="Path 379" d="M3467.256,493.292c2.532,5.2,5.566,7.129,8.229,7.623-8.863-26.506-26.867-25.767-26.867-25.767a6.815,6.815,0,0,1,2.141,1.145c3.866,2.241,12.025,7.809,16.5,17" fill="#30598e"/>
          <path id="Path_380" data-name="Path 380" d="M3469.465,500.322c-6.117,6.031-11.959,25.448,3.992,39.434h11.327c15.951-13.986,10.111-33.4,3.993-39.434Z" fill="#ffb100"/>
          <path id="Path_381" data-name="Path 381" d="M3491.94,504.8a17.919,17.919,0,0,0-3.163-4.48h-19.312a17.914,17.914,0,0,0-3.164,4.48Z" fill="#f80"/>
          <path id="Path_382" data-name="Path 382" d="M3488.776,500.322h-6.737c6.117,6.031,11.958,25.448-3.992,39.434h6.737c15.951-13.986,10.11-33.4,3.992-39.434" fill="#f80"/>
        </g>
      </g>
    </g>
    <g id="Group_75" data-name="Group 75">
      <path id="Path_383" data-name="Path 383" d="M2161.547,489.564h158.925l-79.462,108.83Z" fill="#d3e2ff"/>
    </g>
  </g>
</svg>
