<svg xmlns="http://www.w3.org/2000/svg" width="26.706" height="26.706" viewBox="0 0 26.706 26.706">
  <g id="Group_63" data-name="Group 63" transform="translate(-3993.32 -245.759)">
    <circle id="Ellipse_5" data-name="Ellipse 5" cx="12.353" cy="12.353" r="12.353" transform="translate(3994.32 246.759)" fill="none" stroke="#005cff" stroke-linecap="round" stroke-linejoin="round" stroke-width="2"/>
    <g id="Group_58" data-name="Group 58">
      <g id="Group_57" data-name="Group 57">
        <g id="Group_56" data-name="Group 56">
          <path id="Path_220" data-name="Path 220" d="M4002.577,259.823h9.935a.8.8,0,0,0,0-1.6h-9.768l2.909-3.379a.919.919,0,0,0,0-1.184.755.755,0,0,0-.565-.263h0a.754.754,0,0,0-.566.268l-4.2,4.874a.918.918,0,0,0,0,1.184l4.23,4.837a.753.753,0,0,0,.564.262h0a.752.752,0,0,0,.566-.267.919.919,0,0,0,0-1.184Z" fill="#005cff"/>
        </g>
      </g>
    </g>
  </g>
</svg>
