<svg xmlns="http://www.w3.org/2000/svg" width="19.374" height="25.813" viewBox="0 0 19.374 25.813">
  <g id="Group_49" data-name="Group 49" transform="translate(-5360.267 -699.326)">
    <path id="Path_267" data-name="Path 267" d="M5369.954,699.326h0a7.411,7.411,0,0,1,7.389,7.39V708.5H5374.6v-1.782a4.657,4.657,0,0,0-4.643-4.644h0a4.657,4.657,0,0,0-4.644,4.644V708.5h-2.745v-1.782a7.411,7.411,0,0,1,7.389-7.39Z" fill="#777" fill-rule="evenodd"/>
    <path id="Path_268" data-name="Path 268" d="M5362.319,709.426h15.27a2.059,2.059,0,0,1,2.052,2.053v11.608a2.058,2.058,0,0,1-2.052,2.052h-15.27a2.057,2.057,0,0,1-2.052-2.052V711.479a2.058,2.058,0,0,1,2.052-2.053Zm8.886,7.73v2.61a1.255,1.255,0,0,1-1.251,1.251h0a1.256,1.256,0,0,1-1.252-1.251v-2.61a2.021,2.021,0,1,1,2.5,0Z" fill="#777" fill-rule="evenodd"/>
    <path id="Path_269" data-name="Path 269" d="M5369.954,709.426h7.635a2.059,2.059,0,0,1,2.052,2.053v11.608a2.058,2.058,0,0,1-2.052,2.052h-7.635v-4.122h0a1.255,1.255,0,0,0,1.251-1.251v-2.61a2.02,2.02,0,0,0-1.251-3.607v-4.123Z" fill="#777" fill-rule="evenodd"/>
  </g>
</svg>
