<svg xmlns="http://www.w3.org/2000/svg" width="27.124" height="27.124" viewBox="0 0 27.124 27.124">
  <g id="Group_48" data-name="Group 48" transform="translate(-5356.822 -596.705)">
    <g id="Group_47" data-name="Group 47">
      <g id="Group_46" data-name="Group 46">
        <g id="Group_42" data-name="Group 42">
          <circle id="Ellipse_10" data-name="Ellipse 10" cx="4.248" cy="4.248" r="4.248" transform="translate(5366.136 604.289)" fill="#777"/>
        </g>
        <g id="Group_43" data-name="Group 43">
          <path id="Path_264" data-name="Path 264" d="M5370.384,623.829a13.562,13.562,0,1,1,13.562-13.562A13.577,13.577,0,0,1,5370.384,623.829Zm0-25.69a12.128,12.128,0,1,0,12.128,12.128A12.142,12.142,0,0,0,5370.384,598.139Z" fill="#777"/>
        </g>
        <g id="Group_44" data-name="Group 44">
          <path id="Path_265" data-name="Path 265" d="M5370.383,623.828a13.561,13.561,0,0,1-13.56-13.561,13.563,13.563,0,1,1,13.56,13.561Zm0-25.688a12.127,12.127,0,0,0-7.323,21.793,12.131,12.131,0,0,0,15.308-.536,12.127,12.127,0,0,0-7.985-21.257Z" fill="#777"/>
        </g>
        <g id="Group_45" data-name="Group 45">
          <path id="Path_266" data-name="Path 266" d="M5379.122,619.683c-.092.086-.186.17-.282.254a12.847,12.847,0,0,1-16.213.567,12.48,12.48,0,0,1-.979-.823,6.5,6.5,0,0,1,6.382-5.239h4.71A6.506,6.506,0,0,1,5379.122,619.683Z" fill="#777"/>
        </g>
      </g>
    </g>
  </g>
</svg>
