<svg xmlns="http://www.w3.org/2000/svg" width="19.122" height="29.297" viewBox="0 0 19.122 29.297">
  <g id="Group_167" data-name="Group 167" transform="translate(-163.329 -1341.24)">
    <path id="Path_358" data-name="Path 358" d="M172.419,1370.232c-.386-.789-1-1.961-1.725-3.36-2.813-5.4-7.365-14.143-7.365-16.857a8.4,8.4,0,0,1,2.8-6.2,10.177,10.177,0,0,1,13.521,0,8.4,8.4,0,0,1,2.8,6.2c0,2.714-4.552,11.454-7.366,16.857-.739,1.419-1.356,2.6-1.741,3.394l-.454-.186.455.187a.518.518,0,0,1-.659.23.473.473,0,0,1-.267-.265Zm-.829-3.753c.5.961.946,1.816,1.3,2.509.353-.693.8-1.548,1.3-2.509,2.775-5.329,7.264-13.949,7.264-16.464a7.524,7.524,0,0,0-2.508-5.557,9.116,9.116,0,0,0-12.111,0,7.528,7.528,0,0,0-2.508,5.557C164.326,1352.53,168.815,1361.15,171.59,1366.479Z"/>
    <path id="Path_359" data-name="Path 359" d="M172.89,1345.708a5.077,5.077,0,1,1-3.594,1.485,5.072,5.072,0,0,1,3.594-1.485Zm2.888,2.189a4.067,4.067,0,1,0,1.2,2.881A4.074,4.074,0,0,0,175.778,1347.9Z"/>
  </g>
</svg>
