<svg xmlns="http://www.w3.org/2000/svg" width="18.806" height="23.751" viewBox="0 0 18.806 23.751">
  <path id="Path_170" data-name="Path 170" d="M1600.885,2656.3l-2.256,16.145a3.612,3.612,0,0,1-1.349,2.318,4.431,4.431,0,0,1-2.8.929h-4.561a4.436,4.436,0,0,1-2.8-.929,3.611,3.611,0,0,1-1.348-2.318l-2.257-16.145h17.364Zm-18.141-1.614a44.194,44.194,0,0,1,7.246-1v-.031a1.558,1.558,0,0,1,.632-1.215,2.559,2.559,0,0,1,3.05,0,1.558,1.558,0,0,1,.632,1.215v.025a42.33,42.33,0,0,1,7.246,1v1.109h-18.806v-1.109Zm8.638-1.045q.765-.015,1.53,0a.556.556,0,0,0-.224-.41.907.907,0,0,0-1.082,0,.554.554,0,0,0-.224.412Zm-6.3,3.769,2.084,14.913a2.568,2.568,0,0,0,.951,1.654,2.717,2.717,0,0,0,.862.459l-1.144-17.026Zm4.084,0,1.153,17.171h1.224V2657.41Zm3.708,0v17.171h1.488l1.153-17.171Zm3.973,0-1.137,16.922a2.684,2.684,0,0,0,.59-.355,2.567,2.567,0,0,0,.95-1.654l2.085-14.913Z" transform="translate(-1582.744 -2651.941)" fill-rule="evenodd"/>
</svg>
