<?xml version="1.0" encoding="UTF-8"?>
<svg id="Layer_1" data-name="Layer 1"
  xmlns="http://www.w3.org/2000/svg" viewBox="0 0 32 32">
  <defs>
    <style>
      .cls-1 {
        fill: #104c94;
        stroke: #104c94;
        stroke-miterlimit: 10;
        stroke-width: .5px;
      }
    </style>
  </defs>
  <path class="cls-1" d="M23.87,8.07l.37,.63c-2.39,1.68-4.6,3.82-6.64,6.4-2.04,2.58-3.51,5.11-4.42,7.58l-.54,.35c-.46,.3-.86,.6-1.2,.9-.06-.29-.22-.76-.48-1.42l-.28-.7c-.61-1.51-1.13-2.56-1.55-3.16-.42-.6-.87-.92-1.36-.97,.66-.6,1.24-.9,1.73-.9,.68,0,1.42,.91,2.23,2.72l.44,.98c1.44-2.58,3.19-4.96,5.23-7.13s4.2-3.94,6.48-5.3Z"/>
</svg>
