<svg width="10" height="14" viewBox="0 0 10 14" fill="none" xmlns="http://www.w3.org/2000/svg">
<path d="M4.66667 3C5.1087 3 5.53262 3.17559 5.84518 3.48815C6.15774 3.80072 6.33333 4.22464 6.33333 4.66667C6.33333 4.88554 6.29023 5.10226 6.20647 5.30447C6.12271 5.50668 5.99994 5.69041 5.84518 5.84518C5.69041 5.99994 5.50668 6.12271 5.30447 6.20647C5.10226 6.29022 4.88554 6.33333 4.66667 6.33333C4.22464 6.33333 3.80072 6.15774 3.48816 5.84518C3.1756 5.53262 3 5.10869 3 4.66667C3 4.22464 3.1756 3.80072 3.48816 3.48815C3.80072 3.17559 4.22464 3 4.66667 3ZM4.66667 0C5.90435 0 7.09133 0.491665 7.9665 1.36683C8.84167 2.242 9.33333 3.42899 9.33333 4.66667C9.33333 8.16667 4.66667 13.3333 4.66667 13.3333C4.66667 13.3333 0 8.16667 0 4.66667C0 3.42899 0.491665 2.242 1.36684 1.36683C2.24201 0.491665 3.42899 0 4.66667 0ZM4.66667 1.33333C3.78261 1.33333 2.93477 1.68452 2.30964 2.30964C1.68452 2.93476 1.33333 3.78261 1.33333 4.66667C1.33333 5.33333 1.33333 6.66667 4.66667 11.14C8 6.66667 8 5.33333 8 4.66667C8 3.78261 7.64881 2.93476 7.02369 2.30964C6.39857 1.68452 5.55072 1.33333 4.66667 1.33333Z" fill="black"/>
</svg>
