<?xml version="1.0" encoding="UTF-8"?>
<svg id="Layer_2" data-name="Layer 2" xmlns="http://www.w3.org/2000/svg" xmlns:xlink="http://www.w3.org/1999/xlink" viewBox="0 0 260.98 51.94">
  <defs>
    <style>
      .cls-1 {
        fill: url(#linear-gradient);
      }

      .cls-2 {
        fill: #fff;
      }
    </style>
    <linearGradient id="linear-gradient" x1="167.13" y1="25.97" x2="260.98" y2="25.97" gradientUnits="userSpaceOnUse">
      <stop offset="0" stop-color="#00b492"/>
      <stop offset="1" stop-color="#009fc7"/>
    </linearGradient>
  </defs>
  <g id="Single_Hotel" data-name="Single Hotel">
    <g id="Layer_14" data-name="Layer 14">
      <g>
        <g>
          <path class="cls-2" d="M2.04,43.26c-.56,0-1.04-.21-1.44-.63-.4-.42-.6-.93-.6-1.55V12.66c0-.61,.2-1.13,.6-1.55,.4-.42,.88-.63,1.44-.63H12.82c1.11,0,2.15,.23,3.13,.69,.98,.46,1.83,1.09,2.56,1.89,.73,.8,1.3,1.74,1.71,2.82,.41,1.08,.62,2.22,.62,3.43s-.22,2.45-.67,3.57c-.45,1.12-1.05,2.1-1.82,2.96,1.13,.89,2.02,2.01,2.7,3.38,.67,1.37,1.01,2.87,1.01,4.51,0,1.35-.23,2.6-.7,3.76-.47,1.16-1.11,2.17-1.91,3.02s-1.75,1.52-2.85,2.01c-1.09,.49-2.27,.73-3.52,.73H2.04ZM4.05,14.92v9.06H12.7c.58-.02,1.12-.15,1.62-.41,.5-.26,.93-.59,1.29-1.01,.36-.42,.64-.89,.86-1.42,.21-.53,.32-1.09,.32-1.69s-.11-1.17-.33-1.72c-.22-.55-.52-1.03-.9-1.45-.38-.42-.83-.75-1.34-1-.51-.25-1.05-.37-1.63-.37H4.05Zm0,13.49v10.42H12.94c.72,0,1.39-.14,2-.44,.62-.29,1.15-.69,1.61-1.19,.45-.5,.81-1.08,1.08-1.73s.4-1.33,.4-2.05-.13-1.41-.4-2.04c-.27-.62-.63-1.15-1.09-1.59-.46-.43-1-.78-1.63-1.02-.63-.25-1.29-.37-1.99-.37H4.05Z"/>
          <path class="cls-2" d="M27.96,33.35c.16,.85,.44,1.64,.86,2.34s.91,1.32,1.5,1.83c.59,.51,1.25,.91,1.99,1.2,.74,.29,1.53,.43,2.36,.43,.98,0,1.89-.18,2.73-.54,.84-.36,1.53-.87,2.07-1.54,.37-.29,.73-.46,1.07-.52,.34-.06,.66-.03,.97,.09,.2,.09,.38,.21,.54,.37,.16,.16,.3,.35,.42,.55,.25,.43,.36,.91,.34,1.46s-.28,1.04-.76,1.49c-.38,.41-.81,.8-1.29,1.18-.48,.38-1.03,.7-1.64,.97-.61,.27-1.28,.49-2.02,.65-.73,.16-1.55,.24-2.44,.24-1.55,0-3-.32-4.36-.96-1.36-.64-2.55-1.51-3.56-2.61-1.02-1.1-1.82-2.39-2.4-3.88-.59-1.49-.88-3.07-.88-4.76s.29-3.28,.88-4.76c.59-1.49,1.39-2.78,2.4-3.88,1.02-1.1,2.2-1.97,3.56-2.61,1.36-.64,2.81-.96,4.36-.96s2.97,.32,4.32,.95c1.35,.63,2.53,1.49,3.55,2.59,1.02,1.09,1.82,2.38,2.43,3.85,.6,1.48,.91,3.05,.93,4.72,0,.61-.18,1.12-.55,1.51-.37,.39-.85,.59-1.44,.59h-15.94Zm13.76-3.69c-.14-.9-.42-1.73-.83-2.47-.41-.74-.93-1.38-1.55-1.92-.62-.54-1.32-.96-2.1-1.26-.78-.3-1.62-.45-2.51-.45s-1.72,.15-2.5,.46c-.77,.31-1.46,.73-2.07,1.27-.61,.54-1.11,1.18-1.51,1.92-.4,.74-.67,1.56-.81,2.44h13.88Z"/>
          <path class="cls-2" d="M69.23,31.33v.15c-.02,1.67-.32,3.24-.93,4.7-.6,1.46-1.41,2.74-2.41,3.84-1.01,1.1-2.19,1.97-3.54,2.6-1.35,.63-2.79,.95-4.3,.95s-3-.32-4.36-.96c-1.36-.64-2.54-1.51-3.55-2.62-1.01-1.11-1.8-2.41-2.38-3.89-.58-1.48-.87-3.06-.87-4.74s.29-3.28,.87-4.76c.58-1.49,1.37-2.78,2.38-3.88,1.01-1.1,2.19-1.97,3.55-2.61,1.36-.64,2.81-.96,4.36-.96,1.36,0,2.64,.25,3.84,.75,1.2,.5,2.3,1.19,3.28,2.06V12.56c0-.65,.19-1.19,.56-1.64s.86-.67,1.45-.67c.56,0,1.04,.22,1.44,.67,.4,.44,.6,.99,.6,1.64V31.33Zm-4.05,.03c0-1.08-.19-2.09-.56-3.03-.38-.95-.88-1.77-1.52-2.48-.64-.71-1.39-1.26-2.26-1.66-.87-.4-1.79-.6-2.78-.6s-1.93,.2-2.8,.6c-.87,.4-1.62,.96-2.26,1.66-.64,.71-1.14,1.54-1.51,2.48-.37,.95-.55,1.96-.55,3.03s.18,2.06,.55,3.01c.37,.95,.87,1.78,1.51,2.48,.64,.71,1.39,1.27,2.26,1.69,.87,.42,1.8,.63,2.8,.63s1.91-.21,2.78-.63c.87-.42,1.62-.98,2.26-1.69,.64-.71,1.15-1.54,1.52-2.48,.38-.95,.56-1.95,.56-3.01Z"/>
          <path class="cls-2" d="M73.57,31.33V12.56c0-.65,.2-1.19,.59-1.64,.39-.44,.87-.67,1.45-.67s1.05,.22,1.43,.67c.38,.44,.56,.99,.56,1.64v9.42c.98-.89,2.08-1.58,3.28-2.09,1.2-.5,2.49-.75,3.87-.75,1.55,0,3,.32,4.35,.96,1.35,.64,2.53,1.51,3.54,2.61,1.01,1.1,1.8,2.39,2.39,3.88,.59,1.48,.88,3.07,.88,4.76s-.29,3.25-.88,4.74c-.59,1.49-1.38,2.78-2.39,3.89-1.01,1.11-2.19,1.98-3.54,2.62-1.35,.64-2.8,.96-4.35,.96s-2.98-.32-4.34-.96c-1.36-.64-2.55-1.51-3.56-2.62-1.02-1.11-1.82-2.41-2.4-3.89-.59-1.48-.88-3.06-.88-4.74v-.03Zm4.03,.03c0,1.06,.19,2.06,.56,3.01,.38,.95,.88,1.78,1.52,2.48,.64,.71,1.4,1.27,2.27,1.69,.88,.42,1.8,.63,2.79,.63s1.93-.21,2.79-.63c.86-.42,1.61-.98,2.25-1.69,.64-.71,1.14-1.54,1.51-2.48,.37-.95,.55-1.95,.55-3.01s-.18-2.09-.55-3.03c-.37-.95-.87-1.77-1.51-2.48-.64-.71-1.39-1.26-2.25-1.66-.86-.4-1.79-.6-2.79-.6s-1.91,.2-2.79,.6c-.88,.4-1.63,.96-2.27,1.66-.64,.71-1.15,1.54-1.52,2.48-.38,.95-.56,1.96-.56,3.03Z"/>
          <path class="cls-2" d="M97.06,31.35c0-1.69,.29-3.28,.88-4.76,.59-1.49,1.39-2.78,2.4-3.88,1.02-1.1,2.2-1.97,3.56-2.61,1.36-.64,2.8-.96,4.34-.96s2.97,.32,4.31,.95c1.34,.63,2.52,1.49,3.53,2.59,1.01,1.09,1.81,2.37,2.4,3.84,.59,1.47,.9,3.04,.91,4.71v9.76c0,.63-.2,1.17-.6,1.61s-.89,.67-1.49,.67-1.05-.22-1.42-.67c-.37-.44-.55-.98-.55-1.61l-.02-.54c-.97,.94-2.05,1.69-3.25,2.27-1.2,.57-2.47,.86-3.83,.86-1.53,0-2.98-.32-4.34-.96-1.36-.64-2.55-1.51-3.56-2.62-1.02-1.11-1.82-2.4-2.4-3.88-.59-1.48-.88-3.06-.88-4.75Zm4.03,0c0,1.06,.19,2.06,.56,3.01,.38,.95,.88,1.78,1.52,2.48,.64,.71,1.4,1.27,2.27,1.69,.87,.42,1.8,.63,2.79,.63s1.93-.21,2.79-.63c.86-.42,1.61-.98,2.25-1.69,.64-.71,1.14-1.54,1.51-2.48,.37-.95,.55-1.95,.55-3.01s-.18-2.09-.55-3.03c-.37-.95-.87-1.77-1.51-2.47-.64-.7-1.39-1.25-2.25-1.66-.86-.41-1.79-.61-2.79-.61s-1.91,.2-2.78,.61c-.87,.41-1.63,.96-2.27,1.66-.65,.7-1.16,1.52-1.54,2.47-.38,.95-.56,1.96-.56,3.03Z"/>
          <path class="cls-2" d="M143.6,31.05v10.06c0,.63-.19,1.15-.56,1.56-.38,.41-.84,.61-1.41,.61s-1.05-.2-1.45-.61c-.41-.41-.61-.93-.61-1.56v-10.14c0-1.02-.16-1.98-.47-2.88-.31-.9-.75-1.68-1.3-2.34-.55-.67-1.22-1.19-1.99-1.59-.77-.39-1.62-.59-2.54-.59s-1.8,.19-2.58,.56c-.78,.38-1.46,.89-2.04,1.55-.58,.66-1.03,1.43-1.35,2.33-.32,.9-.48,1.86-.48,2.88v10.22c0,.63-.19,1.15-.56,1.56-.38,.41-.84,.61-1.41,.61-.28,0-.55-.05-.8-.17-.25-.11-.47-.26-.66-.45s-.34-.42-.45-.69-.16-.56-.16-.87v-10.24c0-1.62,.27-3.15,.8-4.57,.53-1.43,1.27-2.67,2.2-3.73,.94-1.06,2.05-1.89,3.33-2.51,1.28-.61,2.66-.92,4.15-.92s2.86,.31,4.13,.92c1.27,.61,2.36,1.45,3.28,2.51,.92,1.06,1.64,2.3,2.16,3.73s.77,2.95,.77,4.57v.18Z"/>
          <path class="cls-2" d="M156.77,29.95l8.06,9.63c.36,.43,.54,.95,.55,1.56,0,.61-.2,1.13-.62,1.56-.19,.2-.4,.35-.64,.45s-.49,.14-.75,.14-.51-.05-.76-.17c-.25-.11-.47-.28-.66-.5l-7.99-9.76-2.58,2.69v5.53c0,.61-.19,1.13-.57,1.55-.38,.42-.85,.63-1.39,.63-.28,0-.55-.05-.8-.17-.25-.11-.47-.26-.66-.46s-.34-.43-.45-.69c-.11-.26-.16-.55-.16-.86V12.43c0-.61,.2-1.13,.61-1.55,.41-.42,.89-.63,1.45-.63s1.04,.21,1.42,.63c.38,.42,.57,.93,.57,1.55V29.77l9.12-9.7c.41-.43,.87-.63,1.39-.6,.52,.03,.97,.26,1.35,.7,.02,0,.02,.02,.02,.05,.38,.43,.56,.94,.56,1.52s-.2,1.09-.61,1.5l-6.47,6.71Z"/>
        </g>
        <path class="cls-1" d="M167.13,31.35c0-1.69,.29-3.28,.88-4.76,.59-1.49,1.39-2.78,2.4-3.88,1.02-1.1,2.2-1.97,3.56-2.61,1.36-.64,2.8-.96,4.34-.96s3,.32,4.35,.96c1.35,.64,2.53,1.51,3.54,2.61,1.01,1.1,1.8,2.39,2.39,3.88,.59,1.48,.88,3.07,.88,4.76s-.29,3.27-.88,4.75c-.59,1.48-1.38,2.77-2.39,3.88-1.01,1.11-2.19,1.98-3.54,2.62-1.35,.64-2.8,.96-4.35,.96-1.38,0-2.66-.25-3.87-.76-1.2-.5-2.3-1.2-3.28-2.09v8.91c0,.65-.18,1.19-.54,1.64s-.84,.67-1.43,.67c-.28,0-.55-.06-.8-.18-.25-.12-.47-.28-.66-.49s-.34-.45-.45-.73c-.11-.28-.16-.58-.16-.91V31.35Zm4.03,0c0,1.06,.19,2.06,.56,3.01,.38,.95,.88,1.78,1.52,2.48,.64,.71,1.4,1.27,2.27,1.69,.87,.42,1.8,.63,2.79,.63s1.93-.21,2.79-.63c.86-.42,1.61-.98,2.25-1.69,.64-.71,1.14-1.54,1.51-2.48,.37-.95,.55-1.95,.55-3.01s-.18-2.09-.55-3.03c-.37-.95-.87-1.77-1.51-2.47-.64-.7-1.39-1.25-2.25-1.66-.86-.41-1.79-.61-2.79-.61s-1.91,.2-2.78,.61-1.63,.96-2.27,1.66c-.65,.7-1.16,1.52-1.54,2.47-.38,.95-.56,1.96-.56,3.03Zm28.43,7.48c.58,0,1.05,.23,1.43,.68,.38,.45,.56,.99,.56,1.6s-.19,1.13-.56,1.54c-.38,.41-.85,.61-1.43,.61h-.09c-1.06,0-2.05-.2-2.98-.61-.92-.41-1.72-.98-2.39-1.7-.67-.73-1.2-1.6-1.58-2.62-.38-1.02-.57-2.16-.57-3.41V12.48c0-.63,.19-1.16,.56-1.59s.84-.64,1.38-.64,1.05,.21,1.46,.64c.41,.43,.62,.96,.62,1.59v22.43c.02,1.26,.35,2.23,1,2.91,.65,.67,1.51,1.01,2.59,1.01Zm8.06-7.02c0,1.01,.16,1.96,.49,2.84s.79,1.66,1.37,2.33c.59,.67,1.28,1.19,2.09,1.59,.8,.39,1.68,.59,2.61,.59s1.79-.2,2.55-.59c.77-.39,1.41-.93,1.95-1.61,.53-.68,.94-1.48,1.23-2.38,.29-.9,.43-1.87,.43-2.89v-10.04c0-.61,.2-1.13,.61-1.56,.41-.43,.89-.64,1.45-.64s1.04,.21,1.42,.64,.57,.95,.57,1.56v10.04c0,1.64-.25,3.18-.75,4.62-.5,1.44-1.2,2.7-2.11,3.78-.91,1.08-1.98,1.93-3.23,2.55-1.25,.62-2.63,.93-4.13,.93s-2.87-.31-4.17-.92c-1.3-.61-2.42-1.45-3.38-2.52-.95-1.07-1.7-2.32-2.25-3.75s-.82-2.96-.82-4.58v-10.14c0-.31,.05-.59,.16-.86s.25-.5,.43-.7c.18-.2,.39-.36,.63-.47s.5-.17,.79-.17,.54,.05,.79,.17c.24,.11,.46,.27,.64,.47s.34,.44,.45,.7c.11,.26,.16,.55,.16,.86v10.17Zm25.71,.87c-.69-.29-1.39-.61-2.11-.97-.72-.36-1.37-.8-1.96-1.32-.59-.52-1.06-1.14-1.43-1.87-.37-.73-.55-1.59-.55-2.6,0-1.08,.2-2.03,.6-2.87,.4-.84,.94-1.54,1.62-2.13,.68-.58,1.48-1.02,2.39-1.33,.91-.31,1.89-.46,2.94-.46,.67,0,1.35,.06,2.03,.18s1.32,.31,1.93,.58c.61,.26,1.16,.6,1.64,1.01,.48,.41,.87,.9,1.15,1.49,.19,.44,.25,.88,.2,1.31-.05,.43-.2,.78-.43,1.05-.25,.29-.55,.5-.91,.61-.36,.12-.72,.09-1.08-.1-.66-.63-1.3-1.1-1.92-1.41-.63-.31-1.39-.46-2.3-.46-.55,0-1.05,.05-1.51,.14-.46,.09-.86,.25-1.2,.46-.34,.21-.6,.48-.8,.81-.2,.32-.29,.72-.29,1.18s.11,.81,.33,1.11c.22,.3,.52,.56,.89,.78,.38,.22,.82,.42,1.34,.6,.52,.18,1.07,.37,1.66,.58,.95,.33,1.87,.69,2.74,1.09,.87,.4,1.64,.88,2.3,1.45s1.18,1.24,1.57,2.02c.39,.79,.59,1.72,.59,2.79,0,1.01-.2,1.95-.6,2.83-.4,.88-.95,1.64-1.64,2.28-.7,.64-1.52,1.14-2.47,1.51-.95,.37-1.98,.55-3.07,.55-.77,0-1.55-.08-2.34-.23-.8-.15-1.55-.41-2.27-.75-.72-.35-1.38-.8-1.98-1.34-.6-.55-1.08-1.2-1.44-1.97-.31-.65-.41-1.23-.28-1.75,.12-.52,.37-.91,.74-1.17,.37-.26,.82-.35,1.35-.27,.53,.08,1.05,.37,1.57,.88,.42,.68,1.04,1.25,1.86,1.69,.82,.44,1.75,.67,2.78,.67,.48,0,.95-.07,1.41-.2,.45-.14,.86-.33,1.21-.59s.63-.56,.83-.91c.2-.35,.3-.75,.3-1.19s-.18-.88-.53-1.27c-.35-.38-.79-.73-1.32-1.02-.53-.3-1.11-.57-1.75-.81-.63-.24-1.22-.45-1.77-.64ZM249.93,0c-2.33,0-4.22,1.88-4.22,4.21s1.89,4.21,4.22,4.21,4.22-1.88,4.22-4.21-1.89-4.21-4.22-4.21Zm0,13.58c-2.33,0-4.22,1.88-4.22,4.21s1.89,4.21,4.22,4.21,4.22-1.88,4.22-4.21-1.89-4.21-4.22-4.21Zm-6.78-6.82c-2.33,0-4.22,1.88-4.22,4.21s1.89,4.21,4.22,4.21,4.22-1.88,4.22-4.21-1.89-4.21-4.22-4.21Zm13.62,0c-2.33,0-4.22,1.88-4.22,4.21s1.89,4.21,4.22,4.21,4.22-1.88,4.22-4.21-1.89-4.21-4.22-4.21Z"/>
      </g>
    </g>
  </g>
</svg>