<svg width="390" height="40" viewBox="0 0 390 40" fill="none" xmlns="http://www.w3.org/2000/svg">
<g clip-path="url(#clip0_1_416)">
<path d="M96.5638 33.2377C96.1334 33.2377 95.7652 33.0751 95.4591 32.7547C95.153 32.4342 95 32.0373 95 31.5638V9.72737C95 9.25391 95.153 8.85698 95.4591 8.53656C95.7652 8.21613 96.1334 8.05353 96.5638 8.05353H104.828C105.679 8.05353 106.478 8.2305 107.224 8.5844C107.975 8.93829 108.625 9.42609 109.18 10.0382C109.735 10.6552 110.175 11.3773 110.49 12.2047C110.806 13.032 110.968 13.912 110.968 14.8398C110.968 15.7675 110.796 16.724 110.457 17.5849C110.117 18.4457 109.653 19.2013 109.065 19.8565C109.926 20.5404 110.615 21.406 111.131 22.4534C111.648 23.5007 111.906 24.658 111.906 25.9158C111.906 26.9536 111.724 27.9149 111.365 28.8092C111.007 29.6987 110.519 30.4734 109.902 31.1286C109.285 31.7838 108.558 32.3003 107.721 32.6734C106.884 33.0464 105.985 33.2329 105.029 33.2329H96.5686L96.5638 33.2377ZM98.1086 11.4586V18.4218H104.737C105.182 18.4075 105.593 18.3022 105.976 18.1061C106.358 17.9101 106.688 17.6518 106.966 17.3266C107.243 17.0062 107.458 16.6427 107.621 16.2362C107.783 15.8297 107.865 15.3993 107.865 14.9402C107.865 14.4811 107.779 14.0411 107.611 13.6203C107.444 13.1994 107.214 12.8312 106.918 12.5107C106.626 12.1903 106.282 11.9321 105.894 11.7456C105.507 11.5543 105.091 11.4586 104.646 11.4586H98.1086ZM98.1086 21.8269V29.8326H104.914C105.464 29.8326 105.976 29.7226 106.449 29.4978C106.923 29.2731 107.334 28.9718 107.678 28.5844C108.027 28.197 108.3 27.757 108.506 27.2549C108.711 26.7575 108.812 26.2315 108.812 25.6815C108.812 25.1315 108.711 24.5959 108.506 24.1176C108.3 23.6394 108.022 23.2329 107.669 22.8981C107.315 22.5634 106.899 22.3003 106.42 22.109C105.942 21.9177 105.43 21.8221 104.895 21.8221H98.1038L98.1086 21.8269Z" fill="#004442"/>
<path d="M116.43 25.6242C116.549 26.2794 116.769 26.8819 117.085 27.4223C117.401 27.9675 117.783 28.4362 118.233 28.8284C118.682 29.2205 119.189 29.5314 119.758 29.7514C120.328 29.9761 120.93 30.0861 121.561 30.0861C122.317 30.0861 123.015 29.9474 123.656 29.6748C124.297 29.3975 124.828 29.0053 125.244 28.4936C125.531 28.2688 125.803 28.1349 126.062 28.0919C126.32 28.044 126.569 28.068 126.808 28.1588C126.961 28.2258 127.099 28.3214 127.219 28.4458C127.339 28.5701 127.449 28.7088 127.544 28.8666C127.735 29.1966 127.822 29.5696 127.802 29.9905C127.783 30.4113 127.592 30.7891 127.219 31.1335C126.932 31.4491 126.602 31.7504 126.229 32.0374C125.856 32.3243 125.44 32.573 124.971 32.7834C124.503 32.9938 123.991 33.1612 123.427 33.2856C122.862 33.4099 122.24 33.4721 121.557 33.4721C120.371 33.4721 119.256 33.2282 118.214 32.7356C117.171 32.243 116.262 31.5735 115.483 30.727C114.703 29.8805 114.091 28.8858 113.642 27.7476C113.192 26.6046 112.967 25.385 112.967 24.089C112.967 22.793 113.192 21.5687 113.642 20.4305C114.091 19.2875 114.703 18.2975 115.483 17.451C116.262 16.6045 117.171 15.935 118.214 15.4424C119.256 14.9498 120.371 14.7059 121.557 14.7059C122.743 14.7059 123.833 14.9498 124.871 15.4329C125.909 15.9159 126.812 16.5806 127.592 17.4175C128.372 18.2592 128.988 19.2444 129.452 20.3779C129.911 21.5113 130.151 22.7212 130.16 24.0077C130.16 24.4812 130.017 24.8685 129.739 25.1698C129.457 25.4711 129.089 25.6242 128.635 25.6242H116.42H116.43ZM126.975 22.793C126.865 22.0995 126.655 21.4635 126.339 20.8944C126.023 20.3253 125.626 19.8327 125.153 19.4214C124.68 19.0101 124.144 18.6849 123.546 18.4553C122.948 18.2258 122.307 18.111 121.624 18.111C120.94 18.111 120.304 18.2306 119.711 18.4649C119.118 18.6992 118.587 19.0244 118.123 19.4405C117.654 19.8518 117.272 20.3444 116.965 20.9183C116.659 21.4874 116.454 22.1139 116.344 22.7978H126.975V22.793Z" fill="#004442"/>
<path d="M148.061 24.0699V24.1895C148.047 25.4759 147.812 26.6763 147.353 27.8002C146.894 28.9241 146.277 29.9044 145.502 30.7509C144.727 31.5974 143.824 32.2622 142.791 32.75C141.753 33.233 140.658 33.4769 139.496 33.4769C138.333 33.4769 137.195 33.233 136.153 32.7404C135.11 32.2478 134.206 31.5783 133.431 30.7222C132.657 29.8662 132.049 28.8714 131.609 27.7332C131.165 26.595 130.945 25.3803 130.945 24.0938C130.945 22.8074 131.165 21.5735 131.609 20.4353C132.054 19.2923 132.661 18.3023 133.431 17.4558C134.206 16.6094 135.11 15.9398 136.153 15.4472C137.195 14.9546 138.31 14.7108 139.496 14.7108C140.538 14.7108 141.519 14.902 142.442 15.2894C143.365 15.6768 144.201 16.2028 144.957 16.8724V9.65096C144.957 9.15359 145.101 8.73274 145.387 8.39319C145.674 8.05364 146.047 7.88147 146.502 7.88147C146.932 7.88147 147.3 8.05364 147.607 8.39319C147.913 8.73274 148.066 9.15359 148.066 9.65096V24.0699H148.061ZM144.952 24.089C144.952 23.2617 144.809 22.4869 144.522 21.76C144.235 21.0331 143.848 20.397 143.355 19.8518C142.862 19.3066 142.284 18.881 141.624 18.5749C140.959 18.2688 140.251 18.111 139.496 18.111C138.74 18.111 138.013 18.2641 137.348 18.5749C136.684 18.8858 136.105 19.3114 135.617 19.8518C135.124 20.397 134.742 21.0331 134.46 21.76C134.178 22.4869 134.039 23.2665 134.039 24.089C134.039 24.9116 134.178 25.672 134.46 26.3989C134.742 27.1259 135.129 27.7619 135.617 28.3071C136.11 28.8523 136.684 29.2827 137.348 29.6079C138.013 29.9283 138.73 30.091 139.496 30.091C140.261 30.091 140.959 29.9283 141.624 29.6079C142.288 29.2875 142.867 28.8523 143.355 28.3071C143.848 27.7619 144.235 27.1259 144.522 26.3989C144.809 25.672 144.952 24.902 144.952 24.089Z" fill="#004442"/>
<path d="M151.38 24.0699V9.65096C151.38 9.15359 151.528 8.73274 151.829 8.39319C152.131 8.05364 152.499 7.88147 152.944 7.88147C153.388 7.88147 153.752 8.05364 154.039 8.39319C154.326 8.73274 154.469 9.15359 154.469 9.65096V16.8915C155.225 16.2076 156.062 15.6768 156.985 15.2894C157.908 14.902 158.893 14.7108 159.95 14.7108C161.136 14.7108 162.245 14.9546 163.283 15.4472C164.321 15.9398 165.225 16.6094 165.995 17.4558C166.765 18.3023 167.377 19.2971 167.826 20.4353C168.276 21.5735 168.501 22.7978 168.501 24.0938C168.501 25.3899 168.276 26.595 167.826 27.7332C167.377 28.8762 166.765 29.871 165.995 30.7222C165.22 31.5735 164.316 32.2478 163.283 32.7404C162.245 33.233 161.136 33.4769 159.95 33.4769C158.764 33.4769 157.669 33.233 156.626 32.7404C155.584 32.2478 154.675 31.5783 153.895 30.7222C153.116 29.871 152.504 28.8714 152.054 27.7332C151.605 26.595 151.38 25.3803 151.38 24.0938V24.0747V24.0699ZM154.469 24.089C154.469 24.902 154.613 25.672 154.9 26.3989C155.187 27.1259 155.574 27.7619 156.067 28.3071C156.559 28.8523 157.138 29.2827 157.807 29.6079C158.477 29.9283 159.189 30.091 159.945 30.091C160.701 30.091 161.423 29.9283 162.083 29.6079C162.743 29.2875 163.317 28.8523 163.809 28.3071C164.302 27.7619 164.684 27.1259 164.967 26.3989C165.249 25.672 165.387 24.902 165.387 24.089C165.387 23.276 165.249 22.4869 164.967 21.76C164.684 21.0331 164.297 20.397 163.809 19.8518C163.317 19.3066 162.743 18.881 162.083 18.5749C161.423 18.2688 160.71 18.111 159.945 18.111C159.18 18.111 158.477 18.2641 157.807 18.5749C157.138 18.8858 156.554 19.3114 156.067 19.8518C155.574 20.397 155.187 21.0331 154.9 21.76C154.613 22.4869 154.469 23.2665 154.469 24.089Z" fill="#004442"/>
<path d="M169.381 24.089C169.381 22.7882 169.605 21.5687 170.055 20.4305C170.504 19.2875 171.117 18.2975 171.896 17.451C172.676 16.6045 173.584 15.935 174.627 15.4424C175.669 14.9498 176.774 14.7059 177.951 14.7059C179.127 14.7059 180.227 14.9498 181.255 15.4329C182.284 15.9159 183.187 16.5806 183.957 17.4175C184.732 18.2592 185.344 19.2396 185.799 20.3683C186.253 21.4969 186.487 22.7021 186.497 23.9886V31.4826C186.497 31.9656 186.344 32.3817 186.038 32.7212C185.732 33.0608 185.354 33.233 184.9 33.233C184.445 33.233 184.096 33.0608 183.814 32.7212C183.532 32.3817 183.393 31.9656 183.393 31.4826L183.374 31.0713C182.633 31.7934 181.801 32.3721 180.887 32.8121C179.969 33.2521 178.993 33.4721 177.951 33.4721C176.779 33.4721 175.669 33.2282 174.627 32.7356C173.584 32.243 172.676 31.5735 171.896 30.7174C171.117 29.8661 170.504 28.8714 170.055 27.738C169.605 26.6046 169.381 25.385 169.381 24.089ZM172.47 24.089C172.47 24.902 172.614 25.672 172.9 26.3989C173.187 27.1258 173.575 27.7619 174.067 28.3071C174.56 28.8523 175.139 29.2827 175.808 29.6079C176.478 29.9283 177.19 30.0909 177.946 30.0909C178.702 30.0909 179.424 29.9283 180.084 29.6079C180.744 29.2875 181.317 28.8523 181.81 28.3071C182.303 27.7619 182.685 27.1258 182.967 26.3989C183.25 25.672 183.388 24.902 183.388 24.089C183.388 23.276 183.25 22.4869 182.967 21.76C182.685 21.0331 182.298 20.397 181.81 19.8613C181.317 19.3257 180.744 18.8953 180.084 18.5845C179.424 18.2688 178.711 18.111 177.946 18.111C177.181 18.111 176.482 18.2688 175.818 18.5845C175.153 18.9001 174.574 19.3257 174.077 19.8613C173.58 20.397 173.187 21.0331 172.9 21.76C172.614 22.4869 172.47 23.2664 172.47 24.089Z" fill="#004442"/>
<path d="M205.048 23.8547V31.5878C205.048 32.0709 204.904 32.4726 204.617 32.7882C204.331 33.1039 203.972 33.2617 203.541 33.2617C203.111 33.2617 202.738 33.1039 202.427 32.7882C202.116 32.4726 201.958 32.0709 201.958 31.5878V23.7973C201.958 23.0082 201.839 22.2717 201.6 21.5831C201.361 20.8944 201.026 20.2966 200.605 19.7849C200.179 19.2732 199.672 18.8667 199.079 18.5654C198.486 18.2641 197.836 18.111 197.128 18.111C196.42 18.111 195.751 18.2545 195.153 18.5462C194.555 18.8332 194.034 19.2301 193.589 19.7371C193.144 20.244 192.8 20.837 192.556 21.5257C192.312 22.2143 192.188 22.9508 192.188 23.7399V31.5878C192.188 32.0709 192.045 32.4726 191.758 32.7882C191.471 33.1039 191.112 33.2617 190.682 33.2617C190.466 33.2617 190.261 33.2186 190.069 33.1325C189.878 33.0465 189.711 32.9317 189.567 32.7882C189.424 32.6448 189.309 32.4678 189.228 32.2574C189.142 32.047 189.103 31.8222 189.103 31.5878V23.7208C189.103 22.4726 189.309 21.3057 189.716 20.2105C190.122 19.1153 190.686 18.1637 191.404 17.3459C192.121 16.5329 192.972 15.892 193.953 15.4185C194.933 14.9451 195.995 14.7108 197.133 14.7108C198.271 14.7108 199.323 14.9451 200.294 15.4185C201.265 15.892 202.102 16.5329 202.81 17.3459C203.518 18.1589 204.068 19.1153 204.464 20.2105C204.861 21.3057 205.057 22.4774 205.057 23.7208V23.8595L205.048 23.8547Z" fill="#004442"/>
<path d="M215.144 23.0082L221.322 30.4066C221.6 30.7366 221.738 31.1335 221.743 31.6069C221.748 32.0804 221.59 32.4773 221.265 32.8073C221.122 32.9651 220.954 33.0799 220.772 33.1517C220.591 33.2234 220.395 33.2617 220.199 33.2617C220.002 33.2617 219.806 33.2186 219.615 33.1325C219.424 33.0464 219.256 32.9221 219.113 32.7499L212.987 25.2559L211.012 27.3219V31.5735C211.012 32.0469 210.863 32.4439 210.572 32.7643C210.28 33.0847 209.921 33.2473 209.5 33.2473C209.285 33.2473 209.08 33.2043 208.888 33.1182C208.697 33.0321 208.53 32.9126 208.386 32.7643C208.243 32.616 208.128 32.4343 208.046 32.2334C207.96 32.0326 207.922 31.8126 207.922 31.5735V9.56007C207.922 9.08661 208.075 8.68968 208.391 8.36926C208.702 8.04884 209.075 7.88623 209.505 7.88623C209.936 7.88623 210.299 8.04884 210.591 8.36926C210.882 8.68968 211.031 9.08661 211.031 9.56007V22.8791L218.018 15.4233C218.329 15.0981 218.687 14.9403 219.084 14.9594C219.486 14.9785 219.83 15.1603 220.117 15.4998C220.127 15.4998 220.136 15.5142 220.136 15.5381C220.423 15.8681 220.567 16.2554 220.567 16.7098C220.567 17.1641 220.409 17.5467 220.098 17.8623L215.139 23.0178L215.144 23.0082Z" fill="#004442"/>
<path d="M223.082 24.089C223.082 22.7881 223.307 21.5686 223.757 20.4304C224.206 19.2874 224.818 18.2975 225.598 17.451C226.377 16.6045 227.286 15.935 228.329 15.4424C229.371 14.9498 230.476 14.7059 231.652 14.7059C232.829 14.7059 233.948 14.9498 234.986 15.4424C236.023 15.935 236.927 16.6045 237.697 17.451C238.467 18.2975 239.079 19.2922 239.529 20.4304C239.978 21.5686 240.203 22.7929 240.203 24.089C240.203 25.385 239.978 26.6045 239.529 27.7379C239.079 28.8714 238.467 29.8661 237.697 30.7174C236.923 31.5686 236.019 32.243 234.986 32.7356C233.948 33.2281 232.838 33.472 231.652 33.472C230.6 33.472 229.61 33.2759 228.687 32.8934C227.764 32.506 226.927 31.9704 226.172 31.2913V38.1349C226.172 38.6322 226.033 39.0531 225.76 39.3927C225.488 39.7322 225.12 39.9044 224.665 39.9044C224.45 39.9044 224.244 39.8565 224.053 39.7657C223.862 39.6748 223.694 39.5505 223.551 39.3927C223.407 39.2348 223.293 39.0483 223.211 38.8331C223.125 38.6179 223.087 38.3836 223.087 38.1349V24.089H223.082ZM226.172 24.089C226.172 24.902 226.315 25.6719 226.602 26.3989C226.889 27.1258 227.276 27.7619 227.769 28.307C228.262 28.8522 228.84 29.2826 229.51 29.6078C230.179 29.9283 230.892 30.0909 231.648 30.0909C232.403 30.0909 233.125 29.9283 233.785 29.6078C234.445 29.2874 235.019 28.8522 235.512 28.307C236.004 27.7619 236.387 27.1258 236.669 26.3989C236.951 25.6719 237.09 24.902 237.09 24.089C237.09 23.276 236.946 22.4869 236.669 21.7599C236.387 21.033 235.999 20.3969 235.512 19.8613C235.019 19.3257 234.445 18.8953 233.785 18.5844C233.125 18.2688 232.413 18.111 231.648 18.111C230.882 18.111 230.184 18.2688 229.519 18.5844C228.855 18.9 228.276 19.3257 227.779 19.8613C227.281 20.3969 226.889 21.033 226.602 21.7599C226.315 22.4869 226.172 23.2664 226.172 24.089ZM247.96 29.8326C248.405 29.8326 248.769 30.0048 249.055 30.3539C249.342 30.703 249.486 31.1095 249.486 31.583C249.486 32.0564 249.342 32.4486 249.055 32.7642C248.769 33.0799 248.405 33.2377 247.96 33.2377H247.889C247.076 33.2377 246.315 33.0799 245.607 32.7642C244.9 32.4486 244.292 32.0134 243.776 31.4539C243.259 30.8991 242.857 30.2248 242.561 29.4357C242.269 28.6466 242.121 27.7762 242.121 26.8197V9.58392C242.121 9.1009 242.264 8.6944 242.551 8.36442C242.838 8.03443 243.192 7.87182 243.613 7.87182C244.034 7.87182 244.417 8.03443 244.737 8.36442C245.053 8.6944 245.215 9.1009 245.215 9.58392V26.8197C245.225 27.7906 245.483 28.5366 245.98 29.0531C246.478 29.5696 247.138 29.8326 247.965 29.8326H247.96ZM254.139 24.4429C254.139 25.2176 254.263 25.9445 254.517 26.6284C254.77 27.3123 255.12 27.9053 255.569 28.417C256.019 28.9287 256.549 29.3352 257.166 29.6365C257.783 29.9378 258.453 30.0909 259.17 30.0909C259.888 30.0909 260.543 29.9426 261.126 29.6365C261.714 29.3352 262.212 28.924 262.618 28.3979C263.025 27.8718 263.34 27.2645 263.56 26.5662C263.78 25.8728 263.89 25.1315 263.89 24.3424V16.6284C263.89 16.155 264.044 15.758 264.359 15.428C264.67 15.0981 265.043 14.9354 265.473 14.9354C265.904 14.9354 266.267 15.0981 266.559 15.428C266.851 15.758 266.999 16.155 266.999 16.6284V24.3424C266.999 25.6002 266.808 26.7862 266.425 27.8958C266.043 29.0053 265.502 29.9713 264.809 30.7987C264.115 31.626 263.288 32.2764 262.331 32.7547C261.375 33.2329 260.318 33.472 259.17 33.472C258.022 33.472 256.966 33.2377 255.971 32.7642C254.976 32.2908 254.115 31.6451 253.384 30.8274C252.652 30.0096 252.078 29.0483 251.657 27.9436C251.236 26.8436 251.031 25.6672 251.031 24.4237V16.6332C251.031 16.3988 251.074 16.1789 251.155 15.9732C251.241 15.7676 251.351 15.5906 251.49 15.4328C251.628 15.275 251.791 15.1554 251.973 15.0694C252.159 14.9833 252.36 14.9402 252.575 14.9402C252.791 14.9402 252.991 14.9833 253.178 15.0694C253.364 15.1554 253.527 15.275 253.67 15.4328C253.814 15.5906 253.929 15.7723 254.01 15.9732C254.091 16.1789 254.134 16.3941 254.134 16.6332V24.4429H254.139ZM273.843 25.1124C273.317 24.8876 272.776 24.6389 272.226 24.3663C271.676 24.089 271.174 23.7542 270.725 23.3525C270.275 22.9508 269.911 22.4725 269.629 21.9178C269.347 21.363 269.208 20.6934 269.208 19.9235C269.208 19.0961 269.362 18.3644 269.668 17.7188C269.974 17.078 270.385 16.5328 270.906 16.0832C271.428 15.6385 272.04 15.2989 272.738 15.0598C273.436 14.8254 274.192 14.7059 274.99 14.7059C275.507 14.7059 276.023 14.7537 276.545 14.8446C277.066 14.9354 277.559 15.0837 278.027 15.2893C278.496 15.495 278.912 15.7532 279.285 16.0689C279.658 16.3845 279.95 16.7623 280.165 17.2119C280.308 17.5514 280.361 17.8862 280.318 18.2162C280.275 18.5461 280.165 18.814 279.988 19.0244C279.797 19.2492 279.562 19.407 279.29 19.4979C279.012 19.5887 278.74 19.5648 278.462 19.4213C277.96 18.9383 277.468 18.5748 276.989 18.3405C276.511 18.1062 275.923 17.9866 275.23 17.9866C274.809 17.9866 274.426 18.0249 274.072 18.0966C273.718 18.1683 273.412 18.2879 273.154 18.4505C272.896 18.6131 272.695 18.8235 272.542 19.0722C272.394 19.3209 272.317 19.6222 272.317 19.9761C272.317 20.33 272.398 20.6026 272.571 20.8321C272.738 21.0617 272.967 21.2626 273.254 21.4299C273.541 21.6021 273.881 21.7551 274.278 21.8938C274.675 22.0325 275.096 22.1808 275.555 22.3386C276.286 22.5873 276.985 22.8646 277.654 23.1755C278.324 23.4816 278.912 23.8546 279.414 24.285C279.916 24.7202 280.318 25.2367 280.619 25.8393C280.921 26.4419 281.069 27.1593 281.069 27.9818C281.069 28.7566 280.916 29.4787 280.61 30.1578C280.304 30.8321 279.888 31.4156 279.352 31.9082C278.821 32.4008 278.185 32.7881 277.458 33.0703C276.726 33.3525 275.942 33.4911 275.105 33.4911C274.517 33.4911 273.919 33.4338 273.307 33.3142C272.695 33.1946 272.116 33.0034 271.566 32.7356C271.016 32.4677 270.509 32.1234 270.05 31.7025C269.591 31.2817 269.223 30.7795 268.945 30.1865C268.706 29.6892 268.635 29.2396 268.73 28.8379C268.826 28.4362 269.012 28.1397 269.295 27.9436C269.577 27.7475 269.921 27.6805 270.328 27.7379C270.734 27.7953 271.136 28.0249 271.533 28.417C271.858 28.9431 272.331 29.3735 272.963 29.7179C273.589 30.0574 274.302 30.2295 275.091 30.2295C275.464 30.2295 275.823 30.177 276.167 30.0718C276.516 29.9665 276.822 29.8183 277.09 29.6174C277.358 29.4166 277.573 29.187 277.726 28.9192C277.879 28.6514 277.96 28.3453 277.96 28.0058C277.96 27.6662 277.826 27.3267 277.559 27.0301C277.291 26.7336 276.951 26.4754 276.545 26.241C276.138 26.0115 275.693 25.8059 275.206 25.6241C274.723 25.4424 274.268 25.275 273.852 25.1315L273.843 25.1124ZM286.53 0C284.747 0 283.297 1.44429 283.297 3.23291C283.297 5.02153 284.742 6.46582 286.53 6.46582C288.319 6.46582 289.763 5.02153 289.763 3.23291C289.763 1.44429 288.319 0 286.53 0ZM286.53 10.4352C284.747 10.4352 283.297 11.8795 283.297 13.6681C283.297 15.4567 284.742 16.901 286.53 16.901C288.319 16.901 289.763 15.4567 289.763 13.6681C289.763 11.8795 288.319 10.4352 286.53 10.4352ZM281.332 5.19368C279.548 5.19368 278.099 6.63797 278.099 8.42659C278.099 10.2152 279.543 11.6595 281.332 11.6595C283.121 11.6595 284.565 10.2152 284.565 8.42659C284.565 6.63797 283.121 5.19368 281.332 5.19368ZM291.767 5.19368C289.983 5.19368 288.534 6.63797 288.534 8.42659C288.534 10.2152 289.978 11.6595 291.767 11.6595C293.556 11.6595 295 10.2152 295 8.42659C295 6.63797 293.556 5.19368 291.767 5.19368Z" fill="url(#paint0_linear_1_416)"/>
</g>
<defs>
<linearGradient id="paint0_linear_1_416" x1="223.082" y1="19.9522" x2="295" y2="19.9522" gradientUnits="userSpaceOnUse">
<stop stop-color="#00B593"/>
<stop offset="1" stop-color="#00A0C8"/>
</linearGradient>
<clipPath id="clip0_1_416">
<rect width="390" height="39.9044" fill="white"/>
</clipPath>
</defs>
</svg>
