<svg width="17" height="16" viewBox="0 0 17 16" fill="none" xmlns="http://www.w3.org/2000/svg">
<path d="M7.7 5.6H9.3V4H7.7M8.5 14.4C4.972 14.4 2.1 11.528 2.1 8C2.1 4.472 4.972 1.6 8.5 1.6C12.028 1.6 14.9 4.472 14.9 8C14.9 11.528 12.028 14.4 8.5 14.4ZM8.5 0C7.44943 0 6.40914 0.206926 5.43853 0.608964C4.46793 1.011 3.58601 1.60028 2.84315 2.34315C1.34285 3.84344 0.5 5.87827 0.5 8C0.5 10.1217 1.34285 12.1566 2.84315 13.6569C3.58601 14.3997 4.46793 14.989 5.43853 15.391C6.40914 15.7931 7.44943 16 8.5 16C10.6217 16 12.6566 15.1571 14.1569 13.6569C15.6571 12.1566 16.5 10.1217 16.5 8C16.5 6.94943 16.2931 5.90914 15.891 4.93853C15.489 3.96793 14.8997 3.08601 14.1569 2.34315C13.414 1.60028 12.5321 1.011 11.5615 0.608964C10.5909 0.206926 9.55058 0 8.5 0ZM7.7 12H9.3V7.2H7.7V12Z" fill="#0079CF"/>
</svg>
