<svg xmlns="http://www.w3.org/2000/svg" width="35" height="40.093" viewBox="0 0 35 40.093">
  <g id="Group_67" data-name="Group 67" transform="translate(-470.207 -380.479)">
    <path id="Path_414" data-name="Path 414" d="M490.112,406.565l.482-.549h-.986Z" fill="#fff"/>
    <path id="Path_415" data-name="Path 415" d="M471.919,382.191V418.86h20.713v-5.227a.859.859,0,0,1,.857-.856h5.447V401.219L491.3,409.9a1.547,1.547,0,0,1-2.3.024l-3.586-3.908H475.062v-2.542h17.726v.048l1.515-1.72H475.062v-2.542h20.663v.925l3.211-3.65V382.191Zm23.806,15.4H475.062v-2.541h20.663Zm0-4.214H478.072v-2.542h17.653Z" fill="#fff"/>
    <path id="Path_416" data-name="Path 416" d="M498.936,412.777h-5.447a.859.859,0,0,0-.857.856v5.227H471.919V382.191h27.017v14.345l1.713-1.946V381.335a.855.855,0,0,0-.857-.856H471.064a.855.855,0,0,0-.857.856v38.381a.855.855,0,0,0,.857.856h23.495a.854.854,0,0,0,.6-.248l2.64-2.622,0,0,2.594-2.6a.862.862,0,0,0,.25-.6V399.273l-1.713,1.946Zm-4.591,6.114v-4.4h4.56Z" fill="#5a6e7f"/>
    <path id="Path_417" data-name="Path 417" d="M494.345,418.891l4.56-4.4h-4.56Z" fill="#fff"/>
    <rect id="Rectangle_4302" data-name="Rectangle 4302" width="17.653" height="2.542" transform="translate(478.072 390.832)" fill="#ffa200"/>
    <rect id="Rectangle_4303" data-name="Rectangle 4303" width="20.663" height="2.542" transform="translate(475.062 395.047)" fill="#ffa200"/>
    <path id="Path_418" data-name="Path 418" d="M475.062,399.261V401.8H494.3l1.422-1.617v-.925Z" fill="#ffa200"/>
    <path id="Path_419" data-name="Path 419" d="M475.062,403.475v2.542H485.41l-.616-.671-.757-.826a.427.427,0,0,1,.314-.715l.1.013,3.93.968a.425.425,0,0,1,.211.126l1.014,1.105h.986l2.194-2.494v-.048Z" fill="#ffa200"/>
    <path id="Path_420" data-name="Path 420" d="M505.062,393.612l-1.683-1.48a.421.421,0,0,0-.281-.107h-.027a.424.424,0,0,0-.293.144l-2.129,2.42-1.713,1.946-3.211,3.65L494.3,401.8l-1.515,1.72-2.194,2.494-.482.548-.5-.548-1.014-1.105a.425.425,0,0,0-.211-.126l-3.93-.968-.1-.013a.427.427,0,0,0-.314.715l.757.826.616.671L489,409.925a1.547,1.547,0,0,0,2.3-.024l7.639-8.682,1.713-1.946,4.451-5.06A.425.425,0,0,0,505.062,393.612Z" fill="#97d5c9"/>
  </g>
</svg>
