<svg xmlns="http://www.w3.org/2000/svg" width="30.58" height="40.742" viewBox="0 0 30.58 40.742">
  <g id="Group_68" data-name="Group 68" transform="translate(-470.103 -1099.686)">
    <path id="Path_422" data-name="Path 422" d="M485.393,1099.686h0a11.7,11.7,0,0,1,11.663,11.663v2.814h-4.334v-2.814a7.35,7.35,0,0,0-7.329-7.329h0a7.35,7.35,0,0,0-7.329,7.329v2.814H473.73v-2.814a11.7,11.7,0,0,1,11.663-11.663Z" fill="#a10000" fill-rule="evenodd"/>
    <path id="Path_423" data-name="Path 423" d="M473.342,1115.628h24.1a3.249,3.249,0,0,1,3.239,3.239v18.323a3.248,3.248,0,0,1-3.239,3.238h-24.1a3.248,3.248,0,0,1-3.239-3.238v-18.323a3.249,3.249,0,0,1,3.239-3.239Zm14.026,12.2v4.118a1.981,1.981,0,0,1-1.975,1.975h0a1.981,1.981,0,0,1-1.975-1.975v-4.118a3.19,3.19,0,1,1,3.95,0Z" fill="#a10000" fill-rule="evenodd"/>
    <path id="Path_424" data-name="Path 424" d="M485.393,1115.628h12.051a3.249,3.249,0,0,1,3.239,3.239v18.323a3.248,3.248,0,0,1-3.239,3.238H485.393v-6.506h0a1.981,1.981,0,0,0,1.975-1.975v-4.118a3.189,3.189,0,0,0-1.975-5.694v-6.507Z" fill="#a10000" fill-rule="evenodd"/>
  </g>
</svg>
