<?xml version="1.0" encoding="UTF-8" standalone="no"?>
<!-- Created with Inkscape (http://www.inkscape.org/) -->

<svg
   version="1.1"
   id="svg2"
   width="34.290527"
   height="23.706055"
   viewBox="0 0 34.290527 23.706055"
   xmlns="http://www.w3.org/2000/svg"
   xmlns:svg="http://www.w3.org/2000/svg">
  <defs
     id="defs6">
    <clipPath
       clipPathUnits="userSpaceOnUse"
       id="clipPath10328">
      <path
         d="M 0,4698.375 H 1920 V 0 H 0 Z"
         id="path10326" />
    </clipPath>
    <clipPath
       clipPathUnits="userSpaceOnUse"
       id="clipPath10756">
      <path
         d="M 0,4698.375 H 1920 V 0 H 0 Z"
         id="path10754" />
    </clipPath>
    <clipPath
       clipPathUnits="userSpaceOnUse"
       id="clipPath10846">
      <path
         d="M 0,4698.375 H 1920 V 0 H 0 Z"
         id="path10844" />
    </clipPath>
  </defs>
  <g
     id="g8302"
     transform="matrix(1.3333333,0,0,-1.3333333,-333.1333,2442.9242)">
    <text
       xml:space="preserve"
       transform="matrix(0.99695,0,0,-1,248.7422,1907.6199)"
       style="font-variant:normal;font-weight:bold;font-stretch:normal;font-size:30px;font-family:'Manrope Bold';-inkscape-font-specification:Manrope-Bold;writing-mode:lr-tb;fill:#004442;fill-opacity:1;fill-rule:nonzero;stroke:none"
       id="text10316"><tspan
         x="0 20.969999 49.200001 67.542 87.101997 95.862 109.392 118.152 136.96201"
         y="0"
         id="tspan10310">Amenities</tspan><tspan
         x="0.44999999 23.01 42.330002 54.987 73.796997 81.927002 88.167 108.177 127.737 135.867 154.677"
         y="720.17999"
         id="tspan10312">Hotel Rules</tspan><tspan
         x="0.44999999 16.482 36.825001 60.855 67.095001 85.095001 104.745 124.065 143.625 157.155 163.395 192.957 210.957 224.817 249.867 258.62701 276.62701 293.81699 300.05701 316.40701 325.16699 334.16699 342.927 349.16699 369.147 387.64499 405.64499 423.64499 443.20499 449.44501 469.45499 488.26501 505.27499 524.59497 538.45502 551.98499"
         y="1109.1"
         id="tspan10314">FAQ about Warwick Fiji Beach Resort </tspan></text>
    <g
       id="g10322">
      <g
         id="g10324"
         clip-path="url(#clipPath10328)">
        <g
           id="g10330"
           transform="translate(274.0258,1827.3682)">
          <path
             d="M 0,0 C 1.105,1.105 1.107,2.893 0.002,3.998 -1.101,5.101 -2.889,5.101 -3.994,3.996 -5.097,2.893 -5.097,1.103 -3.994,-0.001 -2.889,-1.107 -1.103,-1.104 0,0"
             style="fill:#005cff;fill-opacity:1;fill-rule:nonzero;stroke:none"
             id="path10332" />
        </g>
        <g
           id="g10334"
           transform="translate(273.4641,1817.7377)">
          <path
             d="m 0,0 c -0.684,0.702 -1.637,1.11 -2.617,1.119 -0.992,0.016 -1.94,-0.381 -2.637,-1.071 -0.777,-0.769 -2.04,-0.77 -2.861,0.037 -1.422,1.399 -3.736,1.4 -5.158,0.004 -0.809,-0.793 -2.082,-0.798 -2.894,-0.006 -1.449,1.408 -3.789,1.391 -5.218,-0.037 l -1.992,-1.993 c -0.316,-0.315 -0.316,-0.825 0,-1.141 0.157,-0.157 0.364,-0.236 0.57,-0.236 0.206,0 0.413,0.079 0.57,0.236 l 1.993,1.993 c 0.81,0.808 2.133,0.816 2.952,0.02 1.446,-1.404 3.708,-1.4 5.148,0.012 0.798,0.785 2.098,0.783 2.939,-0.044 1.402,-1.381 3.685,-1.378 5.086,0.009 0.393,0.388 0.946,0.616 1.488,0.603 0.551,-0.005 1.089,-0.234 1.475,-0.63 L 0.719,-3.053 C 1.03,-3.373 1.54,-3.38 1.86,-3.069 c 0.319,0.311 0.326,0.821 0.016,1.141 z"
             style="fill:#005cff;fill-opacity:1;fill-rule:nonzero;stroke:none"
             id="path10336" />
        </g>
        <g
           id="g10338"
           transform="translate(250.657,1818.4476)">
          <path
             d="m 0,0 c 0.206,0 0.413,0.079 0.57,0.236 l 1.993,1.993 c 0.81,0.809 2.133,0.816 2.952,0.02 1.446,-1.405 3.708,-1.4 5.148,0.012 0.798,0.784 2.098,0.784 2.939,-0.044 1.402,-1.381 3.685,-1.378 5.086,0.009 0.393,0.388 0.946,0.599 1.488,0.603 0.551,-0.005 1.089,-0.235 1.475,-0.63 l 1.875,-1.928 c 0.311,-0.32 0.821,-0.327 1.141,-0.016 0.319,0.311 0.326,0.821 0.016,1.141 L 22.807,3.324 C 22.123,4.026 21.17,4.434 20.19,4.443 19.198,4.448 18.25,4.062 17.553,3.372 16.776,2.603 15.513,2.601 14.692,3.409 13.27,4.808 10.956,4.809 9.534,3.413 8.725,2.62 7.452,2.615 6.64,3.407 5.191,4.814 2.851,4.798 1.422,3.37 L -0.57,1.377 C -0.885,1.062 -0.885,0.551 -0.57,0.236 -0.413,0.079 -0.206,0 0,0"
             style="fill:#005cff;fill-opacity:1;fill-rule:nonzero;stroke:none"
             id="path10340" />
        </g>
        <g
           id="g10342"
           transform="translate(255.3178,1824.833)">
          <path
             d="M 0,0 7.417,2.223 C 7.418,2.219 7.421,2.219 7.422,2.216 7.686,2.297 7.982,2.243 8.193,2.033 8.483,1.741 8.491,1.274 8.214,0.971 L 6.066,-0.498 c 0.446,0.119 0.909,0.185 1.383,0.185 1.403,0 2.721,-0.537 3.713,-1.513 0.124,-0.122 0.25,-0.147 0.333,-0.147 0.071,0 0.174,0.018 0.263,0.107 1.002,0.991 2.335,1.537 3.786,1.537 0.117,-0.001 0.233,-0.011 0.35,-0.021 -0.179,0.355 -0.424,0.722 -0.782,1.084 L 11.921,3.912 C 10.43,5.578 8.581,5.039 8.372,4.979 L -0.674,2.219 C -1.147,2.017 -1.548,1.371 -1.366,0.771 -1.183,0.175 -0.506,-0.096 0,0"
             style="fill:#005cff;fill-opacity:1;fill-rule:nonzero;stroke:none"
             id="path10344" />
        </g>
      </g>
    </g>
    <g
       id="g10750">
      <g
         id="g10752"
         clip-path="url(#clipPath10756)">
        <g
           id="g10758"
           transform="translate(252.336,741.3693)">
          <path
             d="M 0,0 H 1381.355"
             style="fill:none;stroke:#636363;stroke-width:1;stroke-linecap:round;stroke-linejoin:round;stroke-miterlimit:2;stroke-dasharray:1, 3, 1, 3, 1, 3;stroke-dashoffset:0;stroke-opacity:1"
             id="path10760" />
        </g>
        <g
           id="g10762"
           transform="translate(252.336,690.9367)">
          <path
             d="M 0,0 H 1381.355"
             style="fill:none;stroke:#636363;stroke-width:1;stroke-linecap:round;stroke-linejoin:round;stroke-miterlimit:2;stroke-dasharray:1, 3, 1, 3, 1, 3;stroke-dashoffset:0;stroke-opacity:1"
             id="path10764" />
        </g>
        <g
           id="g10766"
           transform="translate(252.336,643.3866)">
          <path
             d="M 0,0 H 1381.355"
             style="fill:none;stroke:#636363;stroke-width:1;stroke-linecap:round;stroke-linejoin:round;stroke-miterlimit:2;stroke-dasharray:1, 3, 1, 3, 1, 3;stroke-dashoffset:0;stroke-opacity:1"
             id="path10768" />
        </g>
        <g
           id="g10770"
           transform="translate(252.336,591.5125)">
          <path
             d="M 0,0 H 1381.355"
             style="fill:none;stroke:#636363;stroke-width:1;stroke-linecap:round;stroke-linejoin:round;stroke-miterlimit:2;stroke-dasharray:1, 3, 1, 3, 1, 3;stroke-dashoffset:0;stroke-opacity:1"
             id="path10772" />
        </g>
        <g
           id="g10774"
           transform="translate(253.6725,539.6356)">
          <path
             d="M 0,0 H 1381.355"
             style="fill:none;stroke:#636363;stroke-width:1;stroke-linecap:round;stroke-linejoin:round;stroke-miterlimit:2;stroke-dasharray:1, 3, 1, 3, 1, 3;stroke-dashoffset:0;stroke-opacity:1"
             id="path10776" />
        </g>
        <g
           id="g10778"
           transform="translate(253.6725,486.3199)">
          <path
             d="M 0,0 H 1381.355"
             style="fill:none;stroke:#636363;stroke-width:1;stroke-linecap:round;stroke-linejoin:round;stroke-miterlimit:2;stroke-dasharray:1, 3, 1, 3, 1, 3;stroke-dashoffset:0;stroke-opacity:1"
             id="path10780" />
        </g>
        <g
           id="g10782"
           transform="translate(253.6725,438.7697)">
          <path
             d="M 0,0 H 1381.355"
             style="fill:none;stroke:#636363;stroke-width:1;stroke-linecap:round;stroke-linejoin:round;stroke-miterlimit:2;stroke-dasharray:1, 3, 1, 3, 1, 3;stroke-dashoffset:0;stroke-opacity:1"
             id="path10784" />
        </g>
        <g
           id="g10786"
           transform="translate(253.6725,386.8956)">
          <path
             d="M 0,0 H 1381.355"
             style="fill:none;stroke:#636363;stroke-width:1;stroke-linecap:round;stroke-linejoin:round;stroke-miterlimit:2;stroke-dasharray:1, 3, 1, 3, 1, 3;stroke-dashoffset:0;stroke-opacity:1"
             id="path10788" />
        </g>
        <g
           id="g10790"
           transform="translate(1565.6079,759.8383)">
          <path
             d="M 0,0 3.802,-4.681 7.746,0"
             style="fill:none;stroke:#007198;stroke-width:2;stroke-linecap:butt;stroke-linejoin:miter;stroke-miterlimit:10;stroke-dasharray:none;stroke-opacity:1"
             id="path10792" />
        </g>
        <g
           id="g10794"
           transform="translate(1565.6079,710.8465)">
          <path
             d="M 0,0 3.802,-4.681 7.746,0"
             style="fill:none;stroke:#007198;stroke-width:2;stroke-linecap:butt;stroke-linejoin:miter;stroke-miterlimit:10;stroke-dasharray:none;stroke-opacity:1"
             id="path10796" />
        </g>
        <g
           id="g10798"
           transform="translate(1565.6079,663.2964)">
          <path
             d="M 0,0 3.802,-4.681 7.746,0"
             style="fill:none;stroke:#007198;stroke-width:2;stroke-linecap:butt;stroke-linejoin:miter;stroke-miterlimit:10;stroke-dasharray:none;stroke-opacity:1"
             id="path10800" />
        </g>
        <g
           id="g10802"
           transform="translate(1565.6079,612.863)">
          <path
             d="M 0,0 3.802,-4.681 7.746,0"
             style="fill:none;stroke:#007198;stroke-width:2;stroke-linecap:butt;stroke-linejoin:miter;stroke-miterlimit:10;stroke-dasharray:none;stroke-opacity:1"
             id="path10804" />
        </g>
        <g
           id="g10806"
           transform="translate(1565.6079,558.1047)">
          <path
             d="M 0,0 3.802,-4.681 7.746,0"
             style="fill:none;stroke:#007198;stroke-width:2;stroke-linecap:butt;stroke-linejoin:miter;stroke-miterlimit:10;stroke-dasharray:none;stroke-opacity:1"
             id="path10808" />
        </g>
        <g
           id="g10810"
           transform="translate(1565.6079,506.2296)">
          <path
             d="M 0,0 3.802,-4.681 7.746,0"
             style="fill:none;stroke:#007198;stroke-width:2;stroke-linecap:butt;stroke-linejoin:miter;stroke-miterlimit:10;stroke-dasharray:none;stroke-opacity:1"
             id="path10812" />
        </g>
        <g
           id="g10814"
           transform="translate(1565.6079,458.6795)">
          <path
             d="M 0,0 3.802,-4.681 7.746,0"
             style="fill:none;stroke:#007198;stroke-width:2;stroke-linecap:butt;stroke-linejoin:miter;stroke-miterlimit:10;stroke-dasharray:none;stroke-opacity:1"
             id="path10816" />
        </g>
        <g
           id="g10818"
           transform="translate(1565.6079,408.2461)">
          <path
             d="M 0,0 3.802,-4.681 7.746,0"
             style="fill:none;stroke:#007198;stroke-width:2;stroke-linecap:butt;stroke-linejoin:miter;stroke-miterlimit:10;stroke-dasharray:none;stroke-opacity:1"
             id="path10820" />
        </g>
        <g
           id="g10822"
           transform="translate(248.7359,1896.2296)">
          <path
             d="M 0,0 H 1386.292"
             style="fill:none;stroke:#636363;stroke-width:2;stroke-linecap:round;stroke-linejoin:round;stroke-miterlimit:2;stroke-dasharray:1, 3, 1, 3, 1, 3;stroke-dashoffset:0;stroke-opacity:1"
             id="path10824" />
        </g>
        <g
           id="g10826"
           transform="translate(246.6838,1171.6187)">
          <path
             d="M 0,0 H 1388.344"
             style="fill:none;stroke:#636363;stroke-width:2;stroke-linecap:round;stroke-linejoin:round;stroke-miterlimit:2;stroke-dasharray:1, 3, 1, 3, 1, 3;stroke-dashoffset:0;stroke-opacity:1"
             id="path10828" />
        </g>
        <g
           id="g10830"
           transform="translate(246.6838,784.9553)">
          <path
             d="M 0,0 H 1388.344"
             style="fill:none;stroke:#636363;stroke-width:2;stroke-linecap:round;stroke-linejoin:round;stroke-miterlimit:2;stroke-dasharray:1, 3, 1, 3, 1, 3;stroke-dashoffset:0;stroke-opacity:1"
             id="path10832" />
        </g>
      </g>
    </g>
    <g
       id="g10840">
      <g
         id="g10842"
         clip-path="url(#clipPath10846)">
        <g
           id="g10848"
           transform="translate(1515.1454,1971.3748)">
          <path
             d="M 0,0 V -28.457"
             style="fill:none;stroke:#757575;stroke-width:2;stroke-linecap:round;stroke-linejoin:miter;stroke-miterlimit:10;stroke-dasharray:none;stroke-opacity:1"
             id="path10850" />
        </g>
        <g
           id="g10852"
           transform="translate(1552.7191,1911.3347)">
          <path
             d="M 0,0 15.832,15.955 32.258,0"
             style="fill:none;stroke:#005cff;stroke-width:2;stroke-linecap:round;stroke-linejoin:miter;stroke-miterlimit:10;stroke-dasharray:none;stroke-opacity:1"
             id="path10854" />
        </g>
        <g
           id="g10856"
           transform="translate(1552.7191,1190.3179)">
          <path
             d="M 0,0 15.832,15.955 32.258,0"
             style="fill:none;stroke:#005cff;stroke-width:2;stroke-linecap:round;stroke-linejoin:miter;stroke-miterlimit:10;stroke-dasharray:none;stroke-opacity:1"
             id="path10858" />
        </g>
        <g
           id="g10860"
           transform="translate(1552.7191,802.9234)">
          <path
             d="M 0,0 15.832,15.955 32.258,0"
             style="fill:none;stroke:#005cff;stroke-width:2;stroke-linecap:round;stroke-linejoin:miter;stroke-miterlimit:10;stroke-dasharray:none;stroke-opacity:1"
             id="path10862" />
        </g>
        <path
           d="M 1919.999,294.486 H 0.001 V 0.001 h 1919.998 z"
           style="fill:#004442;fill-opacity:1;fill-rule:nonzero;stroke:none"
           id="path10864" />
      </g>
    </g>
  </g>
</svg>
