<?xml version="1.0" encoding="UTF-8" standalone="no"?>
<!-- Created with Inkscape (http://www.inkscape.org/) -->

<svg
   version="1.1"
   id="svg2"
   width="24.305664"
   height="24.55957"
   viewBox="0 0 24.305664 24.55957"
   sodipodi:docname="Bedbank Plus - Revised UI.ai"
   xmlns:inkscape="http://www.inkscape.org/namespaces/inkscape"
   xmlns:sodipodi="http://sodipodi.sourceforge.net/DTD/sodipodi-0.dtd"
   xmlns="http://www.w3.org/2000/svg"
   xmlns:svg="http://www.w3.org/2000/svg">
  <defs
     id="defs6">
    <clipPath
       clipPathUnits="userSpaceOnUse"
       id="clipPath10490">
      <path
         d="M 0,4698.375 H 1920 V 0 H 0 Z"
         id="path10488" />
    </clipPath>
    <clipPath
       clipPathUnits="userSpaceOnUse"
       id="clipPath10756">
      <path
         d="M 0,4698.375 H 1920 V 0 H 0 Z"
         id="path10754" />
    </clipPath>
    <clipPath
       clipPathUnits="userSpaceOnUse"
       id="clipPath10846">
      <path
         d="M 0,4698.375 H 1920 V 0 H 0 Z"
         id="path10844" />
    </clipPath>
  </defs>
  <sodipodi:namedview
     id="namedview4"
     pagecolor="#ffffff"
     bordercolor="#000000"
     borderopacity="0.25"
     inkscape:showpageshadow="2"
     inkscape:pageopacity="0.0"
     inkscape:pagecheckerboard="0"
     inkscape:deskcolor="#d1d1d1"
     showgrid="false" />
  <g
     id="g8302"
     inkscape:groupmode="layer"
     inkscape:label="Page 4"
     transform="matrix(1.3333333,0,0,-1.3333333,-2005.1016,2447.9495)">
    <g
       id="g10484"
       inkscape:export-filename="g10484.png"
       inkscape:export-xdpi="96"
       inkscape:export-ydpi="96">
      <g
         id="g10486"
         clip-path="url(#clipPath10490)">
        <g
           id="g10492"
           transform="translate(1515.5968,1822.5491)">
          <path
             d="m 0,0 c -0.251,0.096 -0.522,0.155 -0.807,0.155 -1.047,0 -1.919,-0.705 -2.195,-1.661 0.299,-0.181 0.647,-0.291 1.022,-0.291 1.033,0 1.876,0.791 1.98,1.797"
             style="fill:#005cff;fill-opacity:1;fill-rule:nonzero;stroke:none"
             id="path10494" />
        </g>
        <g
           id="g10496"
           transform="translate(1516.1527,1822.2448)">
          <path
             d="m 0,0 c -0.237,-1.184 -1.284,-2.079 -2.536,-2.079 -0.403,0 -0.78,0.1 -1.12,0.266 0,-0.008 -0.002,-0.016 -0.002,-0.024 0,-1.267 1.028,-2.295 2.295,-2.295 1.267,0 2.294,1.028 2.294,2.295 C 0.931,-1.082 0.562,-0.418 0,0"
             style="fill:#005cff;fill-opacity:1;fill-rule:nonzero;stroke:none"
             id="path10498" />
        </g>
        <g
           id="g10500"
           transform="translate(1518.9207,1825.6243)">
          <path
             d="M 0,0 -0.821,0.821 0.523,2.165 1.342,1.348 C 0.981,0.82 0.525,0.363 0,0 m -7.268,1.413 0.753,0.752 1.344,-1.344 -0.774,-0.775 c -0.521,0.371 -0.97,0.833 -1.323,1.367 m 1.412,7.133 0.685,-0.687 -1.344,-1.344 -0.69,0.689 c 0.364,0.525 0.821,0.982 1.349,1.342 M 1.274,7.266 0.523,6.515 -0.821,7.859 -0.093,8.587 C 0.441,8.236 0.903,7.786 1.274,7.266 M 0.938,6.1 1.598,6.759 C 1.919,6.176 2.131,5.524 2.206,4.832 Z M 2.219,3.861 C 2.164,3.147 1.966,2.473 1.651,1.868 L 0.938,2.581 Z M -0.821,4.34 0.523,5.685 1.868,4.34 0.523,2.995 Z M -2.581,2.581 -1.236,3.926 0.109,2.581 -1.236,1.235 Z m 1.345,-2.175 0.721,-0.721 C -1.128,-0.64 -1.814,-0.843 -2.541,-0.899 Z m -2.22,-1.3 c -0.713,0.071 -1.384,0.286 -1.983,0.617 l 0.683,0.683 z m -1.3,4.82 1.345,-1.345 -1.345,-1.346 -1.345,1.346 z M -3.411,6.1 -4.756,4.755 -6.101,6.1 -4.756,7.445 Z m -1.345,2.175 -0.58,0.58 c 0.52,0.271 1.092,0.455 1.698,0.536 z M -2.372,9.41 C -1.748,9.342 -1.158,9.16 -0.621,8.89 L -1.236,8.275 Z M -2.581,6.1 -1.236,7.445 0.109,6.1 -1.236,4.755 Z m -1.76,1.759 1.345,1.345 1.345,-1.345 -1.345,-1.344 z m 2.69,-7.038 -1.345,-1.345 -1.345,1.345 1.345,1.344 z M -4.341,4.34 -2.996,5.685 -1.651,4.34 -2.996,2.995 Z M -8.07,4.959 c 0.082,0.617 0.271,1.202 0.552,1.73 L -6.929,6.1 Z M -6.929,2.581 -7.569,1.942 C -7.847,2.495 -8.033,3.103 -8.097,3.748 Z M -7.86,4.34 -6.515,5.685 -5.171,4.34 -6.515,2.995 Z m 4.918,5.998 c -3.356,0 -6.077,-2.72 -6.077,-6.077 0,-2.774 -0.109,-4.289 0.248,-5.115 l -1.8,-1.837 -0.237,0.189 c -0.307,0.221 -0.579,-0.167 -0.967,-0.565 l -3.146,-3.234 c -0.537,-0.549 0.343,-1.334 0.343,-1.334 0,0 0.727,-0.803 1.263,-0.256 l 3.124,3.187 c 0.362,0.371 0.817,0.705 0.572,1.049 l -0.271,0.297 1.785,1.821 c 0.817,-0.377 2.338,-0.278 5.163,-0.278 3.356,0 6.077,2.721 6.077,6.076 0,3.357 -2.721,6.077 -6.077,6.077"
             style="fill:#005cff;fill-opacity:1;fill-rule:nonzero;stroke:none"
             id="path10502" />
        </g>
      </g>
    </g>
    <g
       id="g10750">
      <g
         id="g10752"
         clip-path="url(#clipPath10756)">
        <g
           id="g10758"
           transform="translate(252.336,741.3693)">
          <path
             d="M 0,0 H 1381.355"
             style="fill:none;stroke:#636363;stroke-width:1;stroke-linecap:round;stroke-linejoin:round;stroke-miterlimit:2;stroke-dasharray:1, 3, 1, 3, 1, 3;stroke-dashoffset:0;stroke-opacity:1"
             id="path10760" />
        </g>
        <g
           id="g10762"
           transform="translate(252.336,690.9367)">
          <path
             d="M 0,0 H 1381.355"
             style="fill:none;stroke:#636363;stroke-width:1;stroke-linecap:round;stroke-linejoin:round;stroke-miterlimit:2;stroke-dasharray:1, 3, 1, 3, 1, 3;stroke-dashoffset:0;stroke-opacity:1"
             id="path10764" />
        </g>
        <g
           id="g10766"
           transform="translate(252.336,643.3866)">
          <path
             d="M 0,0 H 1381.355"
             style="fill:none;stroke:#636363;stroke-width:1;stroke-linecap:round;stroke-linejoin:round;stroke-miterlimit:2;stroke-dasharray:1, 3, 1, 3, 1, 3;stroke-dashoffset:0;stroke-opacity:1"
             id="path10768" />
        </g>
        <g
           id="g10770"
           transform="translate(252.336,591.5125)">
          <path
             d="M 0,0 H 1381.355"
             style="fill:none;stroke:#636363;stroke-width:1;stroke-linecap:round;stroke-linejoin:round;stroke-miterlimit:2;stroke-dasharray:1, 3, 1, 3, 1, 3;stroke-dashoffset:0;stroke-opacity:1"
             id="path10772" />
        </g>
        <g
           id="g10774"
           transform="translate(253.6725,539.6356)">
          <path
             d="M 0,0 H 1381.355"
             style="fill:none;stroke:#636363;stroke-width:1;stroke-linecap:round;stroke-linejoin:round;stroke-miterlimit:2;stroke-dasharray:1, 3, 1, 3, 1, 3;stroke-dashoffset:0;stroke-opacity:1"
             id="path10776" />
        </g>
        <g
           id="g10778"
           transform="translate(253.6725,486.3199)">
          <path
             d="M 0,0 H 1381.355"
             style="fill:none;stroke:#636363;stroke-width:1;stroke-linecap:round;stroke-linejoin:round;stroke-miterlimit:2;stroke-dasharray:1, 3, 1, 3, 1, 3;stroke-dashoffset:0;stroke-opacity:1"
             id="path10780" />
        </g>
        <g
           id="g10782"
           transform="translate(253.6725,438.7697)">
          <path
             d="M 0,0 H 1381.355"
             style="fill:none;stroke:#636363;stroke-width:1;stroke-linecap:round;stroke-linejoin:round;stroke-miterlimit:2;stroke-dasharray:1, 3, 1, 3, 1, 3;stroke-dashoffset:0;stroke-opacity:1"
             id="path10784" />
        </g>
        <g
           id="g10786"
           transform="translate(253.6725,386.8956)">
          <path
             d="M 0,0 H 1381.355"
             style="fill:none;stroke:#636363;stroke-width:1;stroke-linecap:round;stroke-linejoin:round;stroke-miterlimit:2;stroke-dasharray:1, 3, 1, 3, 1, 3;stroke-dashoffset:0;stroke-opacity:1"
             id="path10788" />
        </g>
        <g
           id="g10790"
           transform="translate(1565.6079,759.8383)">
          <path
             d="M 0,0 3.802,-4.681 7.746,0"
             style="fill:none;stroke:#007198;stroke-width:2;stroke-linecap:butt;stroke-linejoin:miter;stroke-miterlimit:10;stroke-dasharray:none;stroke-opacity:1"
             id="path10792" />
        </g>
        <g
           id="g10794"
           transform="translate(1565.6079,710.8465)">
          <path
             d="M 0,0 3.802,-4.681 7.746,0"
             style="fill:none;stroke:#007198;stroke-width:2;stroke-linecap:butt;stroke-linejoin:miter;stroke-miterlimit:10;stroke-dasharray:none;stroke-opacity:1"
             id="path10796" />
        </g>
        <g
           id="g10798"
           transform="translate(1565.6079,663.2964)">
          <path
             d="M 0,0 3.802,-4.681 7.746,0"
             style="fill:none;stroke:#007198;stroke-width:2;stroke-linecap:butt;stroke-linejoin:miter;stroke-miterlimit:10;stroke-dasharray:none;stroke-opacity:1"
             id="path10800" />
        </g>
        <g
           id="g10802"
           transform="translate(1565.6079,612.863)">
          <path
             d="M 0,0 3.802,-4.681 7.746,0"
             style="fill:none;stroke:#007198;stroke-width:2;stroke-linecap:butt;stroke-linejoin:miter;stroke-miterlimit:10;stroke-dasharray:none;stroke-opacity:1"
             id="path10804" />
        </g>
        <g
           id="g10806"
           transform="translate(1565.6079,558.1047)">
          <path
             d="M 0,0 3.802,-4.681 7.746,0"
             style="fill:none;stroke:#007198;stroke-width:2;stroke-linecap:butt;stroke-linejoin:miter;stroke-miterlimit:10;stroke-dasharray:none;stroke-opacity:1"
             id="path10808" />
        </g>
        <g
           id="g10810"
           transform="translate(1565.6079,506.2296)">
          <path
             d="M 0,0 3.802,-4.681 7.746,0"
             style="fill:none;stroke:#007198;stroke-width:2;stroke-linecap:butt;stroke-linejoin:miter;stroke-miterlimit:10;stroke-dasharray:none;stroke-opacity:1"
             id="path10812" />
        </g>
        <g
           id="g10814"
           transform="translate(1565.6079,458.6795)">
          <path
             d="M 0,0 3.802,-4.681 7.746,0"
             style="fill:none;stroke:#007198;stroke-width:2;stroke-linecap:butt;stroke-linejoin:miter;stroke-miterlimit:10;stroke-dasharray:none;stroke-opacity:1"
             id="path10816" />
        </g>
        <g
           id="g10818"
           transform="translate(1565.6079,408.2461)">
          <path
             d="M 0,0 3.802,-4.681 7.746,0"
             style="fill:none;stroke:#007198;stroke-width:2;stroke-linecap:butt;stroke-linejoin:miter;stroke-miterlimit:10;stroke-dasharray:none;stroke-opacity:1"
             id="path10820" />
        </g>
        <g
           id="g10822"
           transform="translate(248.7359,1896.2296)">
          <path
             d="M 0,0 H 1386.292"
             style="fill:none;stroke:#636363;stroke-width:2;stroke-linecap:round;stroke-linejoin:round;stroke-miterlimit:2;stroke-dasharray:1, 3, 1, 3, 1, 3;stroke-dashoffset:0;stroke-opacity:1"
             id="path10824" />
        </g>
        <g
           id="g10826"
           transform="translate(246.6838,1171.6187)">
          <path
             d="M 0,0 H 1388.344"
             style="fill:none;stroke:#636363;stroke-width:2;stroke-linecap:round;stroke-linejoin:round;stroke-miterlimit:2;stroke-dasharray:1, 3, 1, 3, 1, 3;stroke-dashoffset:0;stroke-opacity:1"
             id="path10828" />
        </g>
        <g
           id="g10830"
           transform="translate(246.6838,784.9553)">
          <path
             d="M 0,0 H 1388.344"
             style="fill:none;stroke:#636363;stroke-width:2;stroke-linecap:round;stroke-linejoin:round;stroke-miterlimit:2;stroke-dasharray:1, 3, 1, 3, 1, 3;stroke-dashoffset:0;stroke-opacity:1"
             id="path10832" />
        </g>
      </g>
    </g>
    <g
       id="g10840">
      <g
         id="g10842"
         clip-path="url(#clipPath10846)">
        <g
           id="g10848"
           transform="translate(1515.1454,1971.3748)">
          <path
             d="M 0,0 V -28.457"
             style="fill:none;stroke:#757575;stroke-width:2;stroke-linecap:round;stroke-linejoin:miter;stroke-miterlimit:10;stroke-dasharray:none;stroke-opacity:1"
             id="path10850" />
        </g>
        <g
           id="g10852"
           transform="translate(1552.7191,1911.3347)">
          <path
             d="M 0,0 15.832,15.955 32.258,0"
             style="fill:none;stroke:#005cff;stroke-width:2;stroke-linecap:round;stroke-linejoin:miter;stroke-miterlimit:10;stroke-dasharray:none;stroke-opacity:1"
             id="path10854" />
        </g>
        <g
           id="g10856"
           transform="translate(1552.7191,1190.3179)">
          <path
             d="M 0,0 15.832,15.955 32.258,0"
             style="fill:none;stroke:#005cff;stroke-width:2;stroke-linecap:round;stroke-linejoin:miter;stroke-miterlimit:10;stroke-dasharray:none;stroke-opacity:1"
             id="path10858" />
        </g>
        <g
           id="g10860"
           transform="translate(1552.7191,802.9234)">
          <path
             d="M 0,0 15.832,15.955 32.258,0"
             style="fill:none;stroke:#005cff;stroke-width:2;stroke-linecap:round;stroke-linejoin:miter;stroke-miterlimit:10;stroke-dasharray:none;stroke-opacity:1"
             id="path10862" />
        </g>
        <path
           d="M 1919.999,294.486 H 0.001 V 0.001 h 1919.998 z"
           style="fill:#004442;fill-opacity:1;fill-rule:nonzero;stroke:none"
           id="path10864" />
      </g>
    </g>
  </g>
</svg>
